<svg width="31" height="21" viewBox="0 0 31 21" fill="none" xmlns="http://www.w3.org/2000/svg">
<path d="M8.76795 3C9.53775 1.66667 11.4623 1.66667 12.2321 3L15.2631 8.25C16.0329 9.58333 15.0707 11.25 13.5311 11.25H7.46891C5.92931 11.25 4.96706 9.58333 5.73686 8.25L8.76795 3Z" fill="#C4C4C4"/>
<path d="M17.768 3C18.5378 1.66667 20.4623 1.66667 21.2321 3L24.2631 8.25C25.0329 9.58333 24.0707 11.25 22.5311 11.25H16.4689C14.9293 11.25 13.9671 9.58333 14.7369 8.25L17.768 3Z" fill="#C4C4C4"/>
<path d="M16.3582 18.7609C15.5913 19.4681 14.4097 19.467 13.644 18.7585L5.77246 11.4744C4.43646 10.2381 5.31232 8.0049 7.13258 8.00649L22.8883 8.02018C24.7086 8.02176 25.5805 10.2565 24.2424 11.4905L16.3582 18.7609Z" fill="#C4C4C4"/>
</svg>
