<svg width="69" height="44" viewBox="0 0 69 44" fill="none" xmlns="http://www.w3.org/2000/svg">
<g filter="url(#filter0_d)">
<path d="M6.736 15C6.472 15 6.25 14.91 6.07 14.73C5.89 14.55 5.8 14.328 5.8 14.064V1.878C5.8 1.602 5.89 1.38 6.07 1.212C6.25 1.032 6.472 0.942 6.736 0.942H9.976C10.876 0.942 11.674 1.134 12.37 1.518C13.066 1.89 13.606 2.406 13.99 3.066C14.386 3.726 14.584 4.494 14.584 5.37C14.584 6.234 14.368 6.996 13.936 7.656C13.504 8.304 12.916 8.796 12.172 9.132L14.926 13.56C15.142 13.908 15.172 14.238 15.016 14.55C14.86 14.85 14.59 15 14.206 15C13.858 15 13.588 14.85 13.396 14.55L10.3 9.582C10.192 9.582 10.084 9.582 9.976 9.582H7.672V14.064C7.672 14.328 7.582 14.55 7.402 14.73C7.234 14.91 7.012 15 6.736 15ZM7.672 7.854H9.976C10.792 7.854 11.464 7.626 11.992 7.17C12.52 6.702 12.784 6.102 12.784 5.37C12.784 4.578 12.52 3.93 11.992 3.426C11.464 2.922 10.792 2.67 9.976 2.67H7.672V7.854ZM21.349 15.072C20.353 15.072 19.465 14.862 18.685 14.442C17.917 14.01 17.311 13.422 16.867 12.678C16.435 11.922 16.219 11.058 16.219 10.086C16.219 9.102 16.423 8.238 16.831 7.494C17.251 6.738 17.827 6.15 18.559 5.73C19.291 5.298 20.131 5.082 21.079 5.082C22.015 5.082 22.819 5.292 23.491 5.712C24.163 6.12 24.673 6.69 25.021 7.422C25.381 8.142 25.561 8.976 25.561 9.924C25.561 10.152 25.483 10.344 25.327 10.5C25.171 10.644 24.973 10.716 24.733 10.716H17.893C18.025 11.544 18.403 12.222 19.027 12.75C19.663 13.266 20.437 13.524 21.349 13.524C21.721 13.524 22.099 13.458 22.483 13.326C22.879 13.182 23.197 13.02 23.437 12.84C23.617 12.708 23.809 12.642 24.013 12.642C24.229 12.63 24.415 12.69 24.571 12.822C24.775 13.002 24.883 13.2 24.895 13.416C24.907 13.632 24.811 13.818 24.607 13.974C24.199 14.298 23.689 14.562 23.077 14.766C22.477 14.97 21.901 15.072 21.349 15.072ZM21.079 6.63C20.191 6.63 19.477 6.876 18.937 7.368C18.397 7.86 18.055 8.496 17.911 9.276H23.905C23.797 8.508 23.503 7.878 23.023 7.386C22.543 6.882 21.895 6.63 21.079 6.63ZM30.6112 14.982C30.2392 14.982 29.9512 14.784 29.7472 14.388L25.9312 6.342C25.8352 6.138 25.8232 5.94 25.8952 5.748C25.9792 5.544 26.1352 5.388 26.3632 5.28C26.5672 5.172 26.7712 5.154 26.9752 5.226C27.1912 5.298 27.3532 5.436 27.4612 5.64L30.5932 12.39L33.6892 5.64C33.7972 5.436 33.9592 5.298 34.1752 5.226C34.4032 5.154 34.6312 5.172 34.8592 5.28C35.0752 5.376 35.2192 5.526 35.2912 5.73C35.3632 5.934 35.3512 6.138 35.2552 6.342L31.4392 14.388C31.2592 14.784 30.9832 14.982 30.6112 14.982ZM37.9705 15C37.7065 15 37.4845 14.916 37.3045 14.748C37.1365 14.568 37.0525 14.346 37.0525 14.082V6.072C37.0525 5.796 37.1365 5.574 37.3045 5.406C37.4845 5.238 37.7065 5.154 37.9705 5.154C38.2465 5.154 38.4685 5.238 38.6365 5.406C38.8045 5.574 38.8885 5.796 38.8885 6.072V14.082C38.8885 14.346 38.8045 14.568 38.6365 14.748C38.4685 14.916 38.2465 15 37.9705 15ZM37.9705 3.552C37.6465 3.552 37.3645 3.438 37.1245 3.21C36.8965 2.97 36.7825 2.688 36.7825 2.364C36.7825 2.04 36.8965 1.764 37.1245 1.536C37.3645 1.296 37.6465 1.176 37.9705 1.176C38.2945 1.176 38.5705 1.296 38.7985 1.536C39.0385 1.764 39.1585 2.04 39.1585 2.364C39.1585 2.688 39.0385 2.97 38.7985 3.21C38.5705 3.438 38.2945 3.552 37.9705 3.552ZM46.6601 15.072C45.6641 15.072 44.7761 14.862 43.9961 14.442C43.2281 14.01 42.6221 13.422 42.1781 12.678C41.7461 11.922 41.5301 11.058 41.5301 10.086C41.5301 9.102 41.7341 8.238 42.1421 7.494C42.5621 6.738 43.1381 6.15 43.8701 5.73C44.6021 5.298 45.4421 5.082 46.3901 5.082C47.3261 5.082 48.1301 5.292 48.8021 5.712C49.4741 6.12 49.9841 6.69 50.3321 7.422C50.6921 8.142 50.8721 8.976 50.8721 9.924C50.8721 10.152 50.7941 10.344 50.6381 10.5C50.4821 10.644 50.2841 10.716 50.0441 10.716H43.2041C43.3361 11.544 43.7141 12.222 44.3381 12.75C44.9741 13.266 45.7481 13.524 46.6601 13.524C47.0321 13.524 47.4101 13.458 47.7941 13.326C48.1901 13.182 48.5081 13.02 48.7481 12.84C48.9281 12.708 49.1201 12.642 49.3241 12.642C49.5401 12.63 49.7261 12.69 49.8821 12.822C50.0861 13.002 50.1941 13.2 50.2061 13.416C50.2181 13.632 50.1221 13.818 49.9181 13.974C49.5101 14.298 49.0001 14.562 48.3881 14.766C47.7881 14.97 47.2121 15.072 46.6601 15.072ZM46.3901 6.63C45.5021 6.63 44.7881 6.876 44.2481 7.368C43.7081 7.86 43.3661 8.496 43.2221 9.276H49.2161C49.1081 8.508 48.8141 7.878 48.3341 7.386C47.8541 6.882 47.2061 6.63 46.3901 6.63ZM54.8603 15C54.6683 15 54.4883 14.946 54.3203 14.838C54.1643 14.718 54.0563 14.574 53.9963 14.406L51.3323 6.414C51.2363 6.042 51.2363 5.742 51.3323 5.514C51.4403 5.274 51.6683 5.154 52.0163 5.154C52.2443 5.154 52.4303 5.22 52.5743 5.352C52.7303 5.472 52.8563 5.682 52.9523 5.982L54.8963 12.048L56.7323 5.838C56.7923 5.634 56.8943 5.472 57.0383 5.352C57.1823 5.22 57.3803 5.154 57.6323 5.154C57.8723 5.154 58.0643 5.22 58.2083 5.352C58.3643 5.472 58.4663 5.634 58.5143 5.838L60.1343 12.174L62.1143 5.982C62.2823 5.43 62.5943 5.154 63.0503 5.154C63.3863 5.154 63.6143 5.274 63.7343 5.514C63.8543 5.742 63.8483 6.042 63.7163 6.414L61.0523 14.406C61.0043 14.574 60.9023 14.718 60.7463 14.838C60.5903 14.946 60.4103 15 60.2063 15C60.0143 15 59.8343 14.946 59.6663 14.838C59.4983 14.718 59.3903 14.574 59.3423 14.406L57.5783 7.872L55.7243 14.406C55.6763 14.574 55.5683 14.718 55.4003 14.838C55.2443 14.946 55.0643 15 54.8603 15ZM12.1 35.18C11.128 35.18 10.216 35 9.364 34.64C8.524 34.268 7.786 33.758 7.15 33.11C6.526 32.45 6.034 31.682 5.674 30.806C5.326 29.93 5.152 28.982 5.152 27.962C5.152 26.954 5.326 26.018 5.674 25.154C6.034 24.278 6.526 23.516 7.15 22.868C7.786 22.208 8.524 21.692 9.364 21.32C10.204 20.948 11.116 20.762 12.1 20.762C13.024 20.762 13.816 20.882 14.476 21.122C15.148 21.362 15.82 21.758 16.492 22.31C16.636 22.43 16.732 22.544 16.78 22.652C16.828 22.76 16.852 22.892 16.852 23.048C16.852 23.276 16.768 23.468 16.6 23.624C16.444 23.78 16.246 23.864 16.006 23.876C15.778 23.888 15.562 23.81 15.358 23.642C14.914 23.258 14.452 22.964 13.972 22.76C13.504 22.556 12.88 22.454 12.1 22.454C11.392 22.454 10.726 22.598 10.102 22.886C9.478 23.174 8.926 23.57 8.446 24.074C7.978 24.578 7.612 25.166 7.348 25.838C7.084 26.498 6.952 27.206 6.952 27.962C6.952 28.73 7.084 29.45 7.348 30.122C7.612 30.782 7.978 31.364 8.446 31.868C8.926 32.372 9.478 32.768 10.102 33.056C10.726 33.332 11.392 33.47 12.1 33.47C12.628 33.47 13.132 33.392 13.612 33.236C14.092 33.08 14.554 32.858 14.998 32.57V29.366H12.514C12.25 29.366 12.028 29.288 11.848 29.132C11.668 28.976 11.578 28.778 11.578 28.538C11.578 28.298 11.668 28.1 11.848 27.944C12.028 27.788 12.25 27.71 12.514 27.71H15.88C16.156 27.71 16.378 27.8 16.546 27.98C16.714 28.148 16.798 28.37 16.798 28.646V32.948C16.798 33.068 16.774 33.188 16.726 33.308C16.69 33.416 16.618 33.518 16.51 33.614C15.874 34.142 15.184 34.538 14.44 34.802C13.696 35.054 12.916 35.18 12.1 35.18ZM22.7255 35.072C21.8495 35.072 21.0635 34.856 20.3675 34.424C19.6715 33.98 19.1195 33.386 18.7115 32.642C18.3155 31.886 18.1175 31.034 18.1175 30.086C18.1175 29.138 18.3335 28.286 18.7655 27.53C19.2095 26.774 19.8035 26.18 20.5475 25.748C21.3035 25.304 22.1495 25.082 23.0855 25.082C24.0215 25.082 24.8615 25.304 25.6055 25.748C26.3495 26.18 26.9375 26.774 27.3695 27.53C27.8135 28.286 28.0355 29.138 28.0355 30.086V34.1C28.0355 34.364 27.9455 34.586 27.7655 34.766C27.5975 34.934 27.3815 35.018 27.1175 35.018C26.8535 35.018 26.6315 34.934 26.4515 34.766C26.2835 34.586 26.1995 34.364 26.1995 34.1V33.434C25.7795 33.938 25.2695 34.34 24.6695 34.64C24.0815 34.928 23.4335 35.072 22.7255 35.072ZM23.0855 33.452C23.6975 33.452 24.2435 33.308 24.7235 33.02C25.2035 32.72 25.5815 32.318 25.8575 31.814C26.1335 31.298 26.2715 30.722 26.2715 30.086C26.2715 29.438 26.1335 28.862 25.8575 28.358C25.5815 27.842 25.2035 27.44 24.7235 27.152C24.2435 26.852 23.6975 26.702 23.0855 26.702C22.4855 26.702 21.9395 26.852 21.4475 27.152C20.9675 27.44 20.5835 27.842 20.2955 28.358C20.0195 28.862 19.8815 29.438 19.8815 30.086C19.8815 30.722 20.0195 31.298 20.2955 31.814C20.5835 32.318 20.9675 32.72 21.4475 33.02C21.9395 33.308 22.4855 33.452 23.0855 33.452ZM34.08 35C33.48 35 32.94 34.85 32.46 34.55C31.98 34.238 31.602 33.818 31.326 33.29C31.05 32.762 30.912 32.168 30.912 31.508V27.062H30.084C29.832 27.062 29.628 26.99 29.472 26.846C29.316 26.702 29.238 26.522 29.238 26.306C29.238 26.066 29.316 25.874 29.472 25.73C29.628 25.586 29.832 25.514 30.084 25.514H30.912V22.922C30.912 22.658 30.996 22.442 31.164 22.274C31.332 22.106 31.548 22.022 31.812 22.022C32.076 22.022 32.292 22.106 32.46 22.274C32.628 22.442 32.712 22.658 32.712 22.922V25.514H34.242C34.494 25.514 34.698 25.586 34.854 25.73C35.01 25.874 35.088 26.066 35.088 26.306C35.088 26.522 35.01 26.702 34.854 26.846C34.698 26.99 34.494 27.062 34.242 27.062H32.712V31.508C32.712 31.988 32.844 32.39 33.108 32.714C33.372 33.038 33.696 33.2 34.08 33.2H34.692C34.908 33.2 35.088 33.284 35.232 33.452C35.388 33.62 35.466 33.836 35.466 34.1C35.466 34.364 35.364 34.58 35.16 34.748C34.968 34.916 34.716 35 34.404 35H34.08ZM41.9166 35.072C40.9446 35.072 40.0866 34.862 39.3426 34.442C38.5986 34.01 38.0106 33.422 37.5786 32.678C37.1586 31.922 36.9486 31.058 36.9486 30.086C36.9486 29.102 37.1586 28.238 37.5786 27.494C38.0106 26.738 38.5986 26.15 39.3426 25.73C40.0866 25.298 40.9446 25.082 41.9166 25.082C42.8766 25.082 43.7286 25.298 44.4726 25.73C45.2166 26.15 45.7986 26.738 46.2186 27.494C46.6506 28.238 46.8666 29.102 46.8666 30.086C46.8666 31.058 46.6566 31.922 46.2366 32.678C45.8166 33.422 45.2346 34.01 44.4906 34.442C43.7466 34.862 42.8886 35.072 41.9166 35.072ZM41.9166 33.452C42.5406 33.452 43.0926 33.308 43.5726 33.02C44.0526 32.732 44.4246 32.336 44.6886 31.832C44.9646 31.328 45.1026 30.746 45.1026 30.086C45.1026 29.426 44.9646 28.844 44.6886 28.34C44.4246 27.824 44.0526 27.422 43.5726 27.134C43.0926 26.846 42.5406 26.702 41.9166 26.702C41.2926 26.702 40.7406 26.846 40.2606 27.134C39.7806 27.422 39.4026 27.824 39.1266 28.34C38.8506 28.844 38.7126 29.426 38.7126 30.086C38.7126 30.746 38.8506 31.328 39.1266 31.832C39.4026 32.336 39.7806 32.732 40.2606 33.02C40.7406 33.308 41.2926 33.452 41.9166 33.452ZM50.2291 35C49.6291 35 49.3291 34.7 49.3291 34.1V26.054C49.3291 25.454 49.6291 25.154 50.2291 25.154C50.8291 25.154 51.1291 25.454 51.1291 26.054V26.396C51.4891 25.976 51.9271 25.646 52.4431 25.406C52.9711 25.166 53.5411 25.046 54.1531 25.046C54.8731 25.046 55.4071 25.166 55.7551 25.406C56.1151 25.634 56.2531 25.91 56.1691 26.234C56.1091 26.486 55.9891 26.654 55.8091 26.738C55.6291 26.81 55.4191 26.822 55.1791 26.774C54.4111 26.618 53.7211 26.606 53.1091 26.738C52.4971 26.87 52.0111 27.116 51.6511 27.476C51.3031 27.836 51.1291 28.292 51.1291 28.844V34.1C51.1291 34.7 50.8291 35 50.2291 35Z" fill="#A23E7E"/>
<path d="M6.07 14.73L5.85787 14.9421H5.85787L6.07 14.73ZM6.07 1.212L6.27482 1.43145L6.28213 1.42413L6.07 1.212ZM12.37 1.518L12.2251 1.7807L12.2286 1.78258L12.37 1.518ZM13.99 3.066L13.7307 3.21688L13.7328 3.22035L13.99 3.066ZM13.936 7.656L14.1856 7.82242L14.187 7.8203L13.936 7.656ZM12.172 9.132L12.0485 8.85859L11.7363 8.99957L11.9173 9.29044L12.172 9.132ZM14.926 13.56L15.1809 13.4018L15.1807 13.4016L14.926 13.56ZM15.016 14.55L15.2822 14.6884L15.2843 14.6842L15.016 14.55ZM13.396 14.55L13.1414 14.7087L13.1433 14.7117L13.396 14.55ZM10.3 9.582L10.5546 9.42333L10.4665 9.282H10.3V9.582ZM7.672 9.582V9.282H7.372V9.582H7.672ZM7.402 14.73L7.18974 14.5177L7.18268 14.5253L7.402 14.73ZM7.672 7.854H7.372V8.154H7.672V7.854ZM11.992 7.17L12.1881 7.39707L12.191 7.3945L11.992 7.17ZM11.992 3.426L11.7849 3.64301L11.992 3.426ZM7.672 2.67V2.37H7.372V2.67H7.672ZM6.736 14.7C6.54827 14.7 6.40358 14.6393 6.28213 14.5179L5.85787 14.9421C6.09642 15.1807 6.39573 15.3 6.736 15.3V14.7ZM6.28213 14.5179C6.16068 14.3964 6.1 14.2517 6.1 14.064H5.5C5.5 14.4043 5.61932 14.7036 5.85787 14.9421L6.28213 14.5179ZM6.1 14.064V1.878H5.5V14.064H6.1ZM6.1 1.878C6.1 1.67404 6.16316 1.53542 6.2747 1.43132L5.8653 0.992683C5.61684 1.22458 5.5 1.52996 5.5 1.878H6.1ZM6.28213 1.42413C6.40358 1.30268 6.54827 1.242 6.736 1.242V0.642C6.39573 0.642 6.09642 0.761319 5.85787 0.999867L6.28213 1.42413ZM6.736 1.242H9.976V0.642H6.736V1.242ZM9.976 1.242C10.8321 1.242 11.5791 1.42425 12.2251 1.78067L12.5149 1.25533C11.7689 0.843754 10.9199 0.642 9.976 0.642V1.242ZM12.2286 1.78258C12.8772 2.12927 13.3757 2.60664 13.7307 3.21687L14.2493 2.91513C13.8363 2.20536 13.2548 1.65073 12.5114 1.25342L12.2286 1.78258ZM13.7328 3.22035C14.0971 3.82756 14.284 4.54071 14.284 5.37H14.884C14.884 4.44729 14.6749 3.62444 14.2472 2.91165L13.7328 3.22035ZM14.284 5.37C14.284 6.18142 14.082 6.88517 13.685 7.4917L14.187 7.8203C14.654 7.10683 14.884 6.28657 14.884 5.37H14.284ZM13.6864 7.48959C13.2871 8.0885 12.7439 8.54456 12.0485 8.85859L12.2955 9.40541C13.0881 9.04744 13.7209 8.5195 14.1856 7.82241L13.6864 7.48959ZM11.9173 9.29044L14.6713 13.7184L15.1807 13.4016L12.4267 8.97356L11.9173 9.29044ZM14.6711 13.7182C14.8434 13.9958 14.8483 14.2146 14.7477 14.4158L15.2843 14.6842C15.4957 14.2614 15.4406 13.8202 15.1809 13.4018L14.6711 13.7182ZM14.7498 14.4116C14.6963 14.5145 14.6295 14.5815 14.5508 14.6253C14.47 14.6702 14.3593 14.7 14.206 14.7V15.3C14.4367 15.3 14.653 15.2548 14.8422 15.1497C15.0335 15.0435 15.1797 14.8855 15.2822 14.6884L14.7498 14.4116ZM14.206 14.7C13.9632 14.7 13.7871 14.6046 13.6487 14.3883L13.1433 14.7117C13.3889 15.0954 13.7528 15.3 14.206 15.3V14.7ZM13.6506 14.3913L10.5546 9.42333L10.0454 9.74067L13.1414 14.7087L13.6506 14.3913ZM10.3 9.282C10.2998 9.282 10.2996 9.282 10.2994 9.282C10.2992 9.282 10.2989 9.282 10.2987 9.282C10.2985 9.282 10.2983 9.282 10.2981 9.282C10.2979 9.282 10.2977 9.282 10.2975 9.282C10.2973 9.282 10.297 9.282 10.2968 9.282C10.2966 9.282 10.2964 9.282 10.2962 9.282C10.296 9.282 10.2958 9.282 10.2956 9.282C10.2954 9.282 10.2951 9.282 10.2949 9.282C10.2947 9.282 10.2945 9.282 10.2943 9.282C10.2941 9.282 10.2939 9.282 10.2937 9.282C10.2935 9.282 10.2933 9.282 10.293 9.282C10.2928 9.282 10.2926 9.282 10.2924 9.282C10.2922 9.282 10.292 9.282 10.2918 9.282C10.2916 9.282 10.2914 9.282 10.2911 9.282C10.2909 9.282 10.2907 9.282 10.2905 9.282C10.2903 9.282 10.2901 9.282 10.2899 9.282C10.2897 9.282 10.2895 9.282 10.2892 9.282C10.289 9.282 10.2888 9.282 10.2886 9.282C10.2884 9.282 10.2882 9.282 10.288 9.282C10.2878 9.282 10.2876 9.282 10.2873 9.282C10.2871 9.282 10.2869 9.282 10.2867 9.282C10.2865 9.282 10.2863 9.282 10.2861 9.282C10.2859 9.282 10.2857 9.282 10.2854 9.282C10.2852 9.282 10.285 9.282 10.2848 9.282C10.2846 9.282 10.2844 9.282 10.2842 9.282C10.284 9.282 10.2838 9.282 10.2835 9.282C10.2833 9.282 10.2831 9.282 10.2829 9.282C10.2827 9.282 10.2825 9.282 10.2823 9.282C10.2821 9.282 10.2819 9.282 10.2816 9.282C10.2814 9.282 10.2812 9.282 10.281 9.282C10.2808 9.282 10.2806 9.282 10.2804 9.282C10.2802 9.282 10.28 9.282 10.2798 9.282C10.2795 9.282 10.2793 9.282 10.2791 9.282C10.2789 9.282 10.2787 9.282 10.2785 9.282C10.2783 9.282 10.2781 9.282 10.2779 9.282C10.2776 9.282 10.2774 9.282 10.2772 9.282C10.277 9.282 10.2768 9.282 10.2766 9.282C10.2764 9.282 10.2762 9.282 10.276 9.282C10.2757 9.282 10.2755 9.282 10.2753 9.282C10.2751 9.282 10.2749 9.282 10.2747 9.282C10.2745 9.282 10.2743 9.282 10.2741 9.282C10.2738 9.282 10.2736 9.282 10.2734 9.282C10.2732 9.282 10.273 9.282 10.2728 9.282C10.2726 9.282 10.2724 9.282 10.2722 9.282C10.2719 9.282 10.2717 9.282 10.2715 9.282C10.2713 9.282 10.2711 9.282 10.2709 9.282C10.2707 9.282 10.2705 9.282 10.2703 9.282C10.27 9.282 10.2698 9.282 10.2696 9.282C10.2694 9.282 10.2692 9.282 10.269 9.282C10.2688 9.282 10.2686 9.282 10.2684 9.282C10.2681 9.282 10.2679 9.282 10.2677 9.282C10.2675 9.282 10.2673 9.282 10.2671 9.282C10.2669 9.282 10.2667 9.282 10.2665 9.282C10.2663 9.282 10.266 9.282 10.2658 9.282C10.2656 9.282 10.2654 9.282 10.2652 9.282C10.265 9.282 10.2648 9.282 10.2646 9.282C10.2644 9.282 10.2641 9.282 10.2639 9.282C10.2637 9.282 10.2635 9.282 10.2633 9.282C10.2631 9.282 10.2629 9.282 10.2627 9.282C10.2625 9.282 10.2622 9.282 10.262 9.282C10.2618 9.282 10.2616 9.282 10.2614 9.282C10.2612 9.282 10.261 9.282 10.2608 9.282C10.2606 9.282 10.2603 9.282 10.2601 9.282C10.2599 9.282 10.2597 9.282 10.2595 9.282C10.2593 9.282 10.2591 9.282 10.2589 9.282C10.2587 9.282 10.2584 9.282 10.2582 9.282C10.258 9.282 10.2578 9.282 10.2576 9.282C10.2574 9.282 10.2572 9.282 10.257 9.282C10.2568 9.282 10.2565 9.282 10.2563 9.282C10.2561 9.282 10.2559 9.282 10.2557 9.282C10.2555 9.282 10.2553 9.282 10.2551 9.282C10.2549 9.282 10.2546 9.282 10.2544 9.282C10.2542 9.282 10.254 9.282 10.2538 9.282C10.2536 9.282 10.2534 9.282 10.2532 9.282C10.253 9.282 10.2528 9.282 10.2525 9.282C10.2523 9.282 10.2521 9.282 10.2519 9.282C10.2517 9.282 10.2515 9.282 10.2513 9.282C10.2511 9.282 10.2509 9.282 10.2506 9.282C10.2504 9.282 10.2502 9.282 10.25 9.282C10.2498 9.282 10.2496 9.282 10.2494 9.282C10.2492 9.282 10.249 9.282 10.2487 9.282C10.2485 9.282 10.2483 9.282 10.2481 9.282C10.2479 9.282 10.2477 9.282 10.2475 9.282C10.2473 9.282 10.2471 9.282 10.2468 9.282C10.2466 9.282 10.2464 9.282 10.2462 9.282C10.246 9.282 10.2458 9.282 10.2456 9.282C10.2454 9.282 10.2452 9.282 10.2449 9.282C10.2447 9.282 10.2445 9.282 10.2443 9.282C10.2441 9.282 10.2439 9.282 10.2437 9.282C10.2435 9.282 10.2433 9.282 10.243 9.282C10.2428 9.282 10.2426 9.282 10.2424 9.282C10.2422 9.282 10.242 9.282 10.2418 9.282C10.2416 9.282 10.2414 9.282 10.2411 9.282C10.2409 9.282 10.2407 9.282 10.2405 9.282C10.2403 9.282 10.2401 9.282 10.2399 9.282C10.2397 9.282 10.2395 9.282 10.2393 9.282C10.239 9.282 10.2388 9.282 10.2386 9.282C10.2384 9.282 10.2382 9.282 10.238 9.282C10.2378 9.282 10.2376 9.282 10.2374 9.282C10.2371 9.282 10.2369 9.282 10.2367 9.282C10.2365 9.282 10.2363 9.282 10.2361 9.282C10.2359 9.282 10.2357 9.282 10.2355 9.282C10.2352 9.282 10.235 9.282 10.2348 9.282C10.2346 9.282 10.2344 9.282 10.2342 9.282C10.234 9.282 10.2338 9.282 10.2336 9.282C10.2333 9.282 10.2331 9.282 10.2329 9.282C10.2327 9.282 10.2325 9.282 10.2323 9.282C10.2321 9.282 10.2319 9.282 10.2317 9.282C10.2314 9.282 10.2312 9.282 10.231 9.282C10.2308 9.282 10.2306 9.282 10.2304 9.282C10.2302 9.282 10.23 9.282 10.2298 9.282C10.2295 9.282 10.2293 9.282 10.2291 9.282C10.2289 9.282 10.2287 9.282 10.2285 9.282C10.2283 9.282 10.2281 9.282 10.2279 9.282C10.2276 9.282 10.2274 9.282 10.2272 9.282C10.227 9.282 10.2268 9.282 10.2266 9.282C10.2264 9.282 10.2262 9.282 10.226 9.282C10.2258 9.282 10.2255 9.282 10.2253 9.282C10.2251 9.282 10.2249 9.282 10.2247 9.282C10.2245 9.282 10.2243 9.282 10.2241 9.282C10.2239 9.282 10.2236 9.282 10.2234 9.282C10.2232 9.282 10.223 9.282 10.2228 9.282C10.2226 9.282 10.2224 9.282 10.2222 9.282C10.222 9.282 10.2217 9.282 10.2215 9.282C10.2213 9.282 10.2211 9.282 10.2209 9.282C10.2207 9.282 10.2205 9.282 10.2203 9.282C10.2201 9.282 10.2198 9.282 10.2196 9.282C10.2194 9.282 10.2192 9.282 10.219 9.282C10.2188 9.282 10.2186 9.282 10.2184 9.282C10.2182 9.282 10.2179 9.282 10.2177 9.282C10.2175 9.282 10.2173 9.282 10.2171 9.282C10.2169 9.282 10.2167 9.282 10.2165 9.282C10.2163 9.282 10.216 9.282 10.2158 9.282C10.2156 9.282 10.2154 9.282 10.2152 9.282C10.215 9.282 10.2148 9.282 10.2146 9.282C10.2144 9.282 10.2141 9.282 10.2139 9.282C10.2137 9.282 10.2135 9.282 10.2133 9.282C10.2131 9.282 10.2129 9.282 10.2127 9.282C10.2125 9.282 10.2123 9.282 10.212 9.282C10.2118 9.282 10.2116 9.282 10.2114 9.282C10.2112 9.282 10.211 9.282 10.2108 9.282C10.2106 9.282 10.2104 9.282 10.2101 9.282C10.2099 9.282 10.2097 9.282 10.2095 9.282C10.2093 9.282 10.2091 9.282 10.2089 9.282C10.2087 9.282 10.2085 9.282 10.2082 9.282C10.208 9.282 10.2078 9.282 10.2076 9.282C10.2074 9.282 10.2072 9.282 10.207 9.282C10.2068 9.282 10.2066 9.282 10.2063 9.282C10.2061 9.282 10.2059 9.282 10.2057 9.282C10.2055 9.282 10.2053 9.282 10.2051 9.282C10.2049 9.282 10.2047 9.282 10.2044 9.282C10.2042 9.282 10.204 9.282 10.2038 9.282C10.2036 9.282 10.2034 9.282 10.2032 9.282C10.203 9.282 10.2028 9.282 10.2025 9.282C10.2023 9.282 10.2021 9.282 10.2019 9.282C10.2017 9.282 10.2015 9.282 10.2013 9.282C10.2011 9.282 10.2009 9.282 10.2006 9.282C10.2004 9.282 10.2002 9.282 10.2 9.282C10.1998 9.282 10.1996 9.282 10.1994 9.282C10.1992 9.282 10.199 9.282 10.1988 9.282C10.1985 9.282 10.1983 9.282 10.1981 9.282C10.1979 9.282 10.1977 9.282 10.1975 9.282C10.1973 9.282 10.1971 9.282 10.1969 9.282C10.1966 9.282 10.1964 9.282 10.1962 9.282C10.196 9.282 10.1958 9.282 10.1956 9.282C10.1954 9.282 10.1952 9.282 10.195 9.282C10.1947 9.282 10.1945 9.282 10.1943 9.282C10.1941 9.282 10.1939 9.282 10.1937 9.282C10.1935 9.282 10.1933 9.282 10.1931 9.282C10.1928 9.282 10.1926 9.282 10.1924 9.282C10.1922 9.282 10.192 9.282 10.1918 9.282C10.1916 9.282 10.1914 9.282 10.1912 9.282C10.1909 9.282 10.1907 9.282 10.1905 9.282C10.1903 9.282 10.1901 9.282 10.1899 9.282C10.1897 9.282 10.1895 9.282 10.1893 9.282C10.189 9.282 10.1888 9.282 10.1886 9.282C10.1884 9.282 10.1882 9.282 10.188 9.282C10.1878 9.282 10.1876 9.282 10.1874 9.282C10.1871 9.282 10.1869 9.282 10.1867 9.282C10.1865 9.282 10.1863 9.282 10.1861 9.282C10.1859 9.282 10.1857 9.282 10.1855 9.282C10.1853 9.282 10.185 9.282 10.1848 9.282C10.1846 9.282 10.1844 9.282 10.1842 9.282C10.184 9.282 10.1838 9.282 10.1836 9.282C10.1834 9.282 10.1831 9.282 10.1829 9.282C10.1827 9.282 10.1825 9.282 10.1823 9.282C10.1821 9.282 10.1819 9.282 10.1817 9.282C10.1815 9.282 10.1812 9.282 10.181 9.282C10.1808 9.282 10.1806 9.282 10.1804 9.282C10.1802 9.282 10.18 9.282 10.1798 9.282C10.1796 9.282 10.1793 9.282 10.1791 9.282C10.1789 9.282 10.1787 9.282 10.1785 9.282C10.1783 9.282 10.1781 9.282 10.1779 9.282C10.1777 9.282 10.1774 9.282 10.1772 9.282C10.177 9.282 10.1768 9.282 10.1766 9.282C10.1764 9.282 10.1762 9.282 10.176 9.282C10.1758 9.282 10.1755 9.282 10.1753 9.282C10.1751 9.282 10.1749 9.282 10.1747 9.282C10.1745 9.282 10.1743 9.282 10.1741 9.282C10.1739 9.282 10.1736 9.282 10.1734 9.282C10.1732 9.282 10.173 9.282 10.1728 9.282C10.1726 9.282 10.1724 9.282 10.1722 9.282C10.172 9.282 10.1718 9.282 10.1715 9.282C10.1713 9.282 10.1711 9.282 10.1709 9.282C10.1707 9.282 10.1705 9.282 10.1703 9.282C10.1701 9.282 10.1699 9.282 10.1696 9.282C10.1694 9.282 10.1692 9.282 10.169 9.282C10.1688 9.282 10.1686 9.282 10.1684 9.282C10.1682 9.282 10.168 9.282 10.1677 9.282C10.1675 9.282 10.1673 9.282 10.1671 9.282C10.1669 9.282 10.1667 9.282 10.1665 9.282C10.1663 9.282 10.1661 9.282 10.1658 9.282C10.1656 9.282 10.1654 9.282 10.1652 9.282C10.165 9.282 10.1648 9.282 10.1646 9.282C10.1644 9.282 10.1642 9.282 10.1639 9.282C10.1637 9.282 10.1635 9.282 10.1633 9.282C10.1631 9.282 10.1629 9.282 10.1627 9.282C10.1625 9.282 10.1623 9.282 10.162 9.282C10.1618 9.282 10.1616 9.282 10.1614 9.282C10.1612 9.282 10.161 9.282 10.1608 9.282C10.1606 9.282 10.1604 9.282 10.1601 9.282C10.1599 9.282 10.1597 9.282 10.1595 9.282C10.1593 9.282 10.1591 9.282 10.1589 9.282C10.1587 9.282 10.1585 9.282 10.1583 9.282C10.158 9.282 10.1578 9.282 10.1576 9.282C10.1574 9.282 10.1572 9.282 10.157 9.282C10.1568 9.282 10.1566 9.282 10.1564 9.282C10.1561 9.282 10.1559 9.282 10.1557 9.282C10.1555 9.282 10.1553 9.282 10.1551 9.282C10.1549 9.282 10.1547 9.282 10.1545 9.282C10.1542 9.282 10.154 9.282 10.1538 9.282C10.1536 9.282 10.1534 9.282 10.1532 9.282C10.153 9.282 10.1528 9.282 10.1526 9.282C10.1523 9.282 10.1521 9.282 10.1519 9.282C10.1517 9.282 10.1515 9.282 10.1513 9.282C10.1511 9.282 10.1509 9.282 10.1507 9.282C10.1504 9.282 10.1502 9.282 10.15 9.282C10.1498 9.282 10.1496 9.282 10.1494 9.282C10.1492 9.282 10.149 9.282 10.1488 9.282C10.1485 9.282 10.1483 9.282 10.1481 9.282C10.1479 9.282 10.1477 9.282 10.1475 9.282C10.1473 9.282 10.1471 9.282 10.1469 9.282C10.1466 9.282 10.1464 9.282 10.1462 9.282C10.146 9.282 10.1458 9.282 10.1456 9.282C10.1454 9.282 10.1452 9.282 10.145 9.282C10.1448 9.282 10.1445 9.282 10.1443 9.282C10.1441 9.282 10.1439 9.282 10.1437 9.282C10.1435 9.282 10.1433 9.282 10.1431 9.282C10.1429 9.282 10.1426 9.282 10.1424 9.282C10.1422 9.282 10.142 9.282 10.1418 9.282C10.1416 9.282 10.1414 9.282 10.1412 9.282C10.141 9.282 10.1407 9.282 10.1405 9.282C10.1403 9.282 10.1401 9.282 10.1399 9.282C10.1397 9.282 10.1395 9.282 10.1393 9.282C10.1391 9.282 10.1388 9.282 10.1386 9.282C10.1384 9.282 10.1382 9.282 10.138 9.282C10.1378 9.282 10.1376 9.282 10.1374 9.282C10.1372 9.282 10.1369 9.282 10.1367 9.282C10.1365 9.282 10.1363 9.282 10.1361 9.282C10.1359 9.282 10.1357 9.282 10.1355 9.282C10.1353 9.282 10.135 9.282 10.1348 9.282C10.1346 9.282 10.1344 9.282 10.1342 9.282C10.134 9.282 10.1338 9.282 10.1336 9.282C10.1334 9.282 10.1331 9.282 10.1329 9.282C10.1327 9.282 10.1325 9.282 10.1323 9.282C10.1321 9.282 10.1319 9.282 10.1317 9.282C10.1315 9.282 10.1313 9.282 10.131 9.282C10.1308 9.282 10.1306 9.282 10.1304 9.282C10.1302 9.282 10.13 9.282 10.1298 9.282C10.1296 9.282 10.1294 9.282 10.1291 9.282C10.1289 9.282 10.1287 9.282 10.1285 9.282C10.1283 9.282 10.1281 9.282 10.1279 9.282C10.1277 9.282 10.1275 9.282 10.1272 9.282C10.127 9.282 10.1268 9.282 10.1266 9.282C10.1264 9.282 10.1262 9.282 10.126 9.282C10.1258 9.282 10.1256 9.282 10.1253 9.282C10.1251 9.282 10.1249 9.282 10.1247 9.282C10.1245 9.282 10.1243 9.282 10.1241 9.282C10.1239 9.282 10.1237 9.282 10.1234 9.282C10.1232 9.282 10.123 9.282 10.1228 9.282C10.1226 9.282 10.1224 9.282 10.1222 9.282C10.122 9.282 10.1218 9.282 10.1215 9.282C10.1213 9.282 10.1211 9.282 10.1209 9.282C10.1207 9.282 10.1205 9.282 10.1203 9.282C10.1201 9.282 10.1199 9.282 10.1196 9.282C10.1194 9.282 10.1192 9.282 10.119 9.282C10.1188 9.282 10.1186 9.282 10.1184 9.282C10.1182 9.282 10.118 9.282 10.1178 9.282C10.1175 9.282 10.1173 9.282 10.1171 9.282C10.1169 9.282 10.1167 9.282 10.1165 9.282C10.1163 9.282 10.1161 9.282 10.1159 9.282C10.1156 9.282 10.1154 9.282 10.1152 9.282C10.115 9.282 10.1148 9.282 10.1146 9.282C10.1144 9.282 10.1142 9.282 10.114 9.282C10.1137 9.282 10.1135 9.282 10.1133 9.282C10.1131 9.282 10.1129 9.282 10.1127 9.282C10.1125 9.282 10.1123 9.282 10.1121 9.282C10.1118 9.282 10.1116 9.282 10.1114 9.282C10.1112 9.282 10.111 9.282 10.1108 9.282C10.1106 9.282 10.1104 9.282 10.1102 9.282C10.1099 9.282 10.1097 9.282 10.1095 9.282C10.1093 9.282 10.1091 9.282 10.1089 9.282C10.1087 9.282 10.1085 9.282 10.1083 9.282C10.108 9.282 10.1078 9.282 10.1076 9.282C10.1074 9.282 10.1072 9.282 10.107 9.282C10.1068 9.282 10.1066 9.282 10.1064 9.282C10.1061 9.282 10.1059 9.282 10.1057 9.282C10.1055 9.282 10.1053 9.282 10.1051 9.282C10.1049 9.282 10.1047 9.282 10.1045 9.282C10.1043 9.282 10.104 9.282 10.1038 9.282C10.1036 9.282 10.1034 9.282 10.1032 9.282C10.103 9.282 10.1028 9.282 10.1026 9.282C10.1024 9.282 10.1021 9.282 10.1019 9.282C10.1017 9.282 10.1015 9.282 10.1013 9.282C10.1011 9.282 10.1009 9.282 10.1007 9.282C10.1005 9.282 10.1002 9.282 10.1 9.282C10.0998 9.282 10.0996 9.282 10.0994 9.282C10.0992 9.282 10.099 9.282 10.0988 9.282C10.0986 9.282 10.0983 9.282 10.0981 9.282C10.0979 9.282 10.0977 9.282 10.0975 9.282C10.0973 9.282 10.0971 9.282 10.0969 9.282C10.0967 9.282 10.0964 9.282 10.0962 9.282C10.096 9.282 10.0958 9.282 10.0956 9.282C10.0954 9.282 10.0952 9.282 10.095 9.282C10.0948 9.282 10.0945 9.282 10.0943 9.282C10.0941 9.282 10.0939 9.282 10.0937 9.282C10.0935 9.282 10.0933 9.282 10.0931 9.282C10.0929 9.282 10.0926 9.282 10.0924 9.282C10.0922 9.282 10.092 9.282 10.0918 9.282C10.0916 9.282 10.0914 9.282 10.0912 9.282C10.091 9.282 10.0908 9.282 10.0905 9.282C10.0903 9.282 10.0901 9.282 10.0899 9.282C10.0897 9.282 10.0895 9.282 10.0893 9.282C10.0891 9.282 10.0889 9.282 10.0886 9.282C10.0884 9.282 10.0882 9.282 10.088 9.282C10.0878 9.282 10.0876 9.282 10.0874 9.282C10.0872 9.282 10.087 9.282 10.0867 9.282C10.0865 9.282 10.0863 9.282 10.0861 9.282C10.0859 9.282 10.0857 9.282 10.0855 9.282C10.0853 9.282 10.0851 9.282 10.0848 9.282C10.0846 9.282 10.0844 9.282 10.0842 9.282C10.084 9.282 10.0838 9.282 10.0836 9.282C10.0834 9.282 10.0832 9.282 10.0829 9.282C10.0827 9.282 10.0825 9.282 10.0823 9.282C10.0821 9.282 10.0819 9.282 10.0817 9.282C10.0815 9.282 10.0813 9.282 10.081 9.282C10.0808 9.282 10.0806 9.282 10.0804 9.282C10.0802 9.282 10.08 9.282 10.0798 9.282C10.0796 9.282 10.0794 9.282 10.0791 9.282C10.0789 9.282 10.0787 9.282 10.0785 9.282C10.0783 9.282 10.0781 9.282 10.0779 9.282C10.0777 9.282 10.0775 9.282 10.0773 9.282C10.077 9.282 10.0768 9.282 10.0766 9.282C10.0764 9.282 10.0762 9.282 10.076 9.282C10.0758 9.282 10.0756 9.282 10.0754 9.282C10.0751 9.282 10.0749 9.282 10.0747 9.282C10.0745 9.282 10.0743 9.282 10.0741 9.282C10.0739 9.282 10.0737 9.282 10.0735 9.282C10.0732 9.282 10.073 9.282 10.0728 9.282C10.0726 9.282 10.0724 9.282 10.0722 9.282C10.072 9.282 10.0718 9.282 10.0716 9.282C10.0713 9.282 10.0711 9.282 10.0709 9.282C10.0707 9.282 10.0705 9.282 10.0703 9.282C10.0701 9.282 10.0699 9.282 10.0697 9.282C10.0694 9.282 10.0692 9.282 10.069 9.282C10.0688 9.282 10.0686 9.282 10.0684 9.282C10.0682 9.282 10.068 9.282 10.0678 9.282C10.0675 9.282 10.0673 9.282 10.0671 9.282C10.0669 9.282 10.0667 9.282 10.0665 9.282C10.0663 9.282 10.0661 9.282 10.0659 9.282C10.0656 9.282 10.0654 9.282 10.0652 9.282C10.065 9.282 10.0648 9.282 10.0646 9.282C10.0644 9.282 10.0642 9.282 10.064 9.282C10.0638 9.282 10.0635 9.282 10.0633 9.282C10.0631 9.282 10.0629 9.282 10.0627 9.282C10.0625 9.282 10.0623 9.282 10.0621 9.282C10.0619 9.282 10.0616 9.282 10.0614 9.282C10.0612 9.282 10.061 9.282 10.0608 9.282C10.0606 9.282 10.0604 9.282 10.0602 9.282C10.06 9.282 10.0597 9.282 10.0595 9.282C10.0593 9.282 10.0591 9.282 10.0589 9.282C10.0587 9.282 10.0585 9.282 10.0583 9.282C10.0581 9.282 10.0578 9.282 10.0576 9.282C10.0574 9.282 10.0572 9.282 10.057 9.282C10.0568 9.282 10.0566 9.282 10.0564 9.282C10.0562 9.282 10.0559 9.282 10.0557 9.282C10.0555 9.282 10.0553 9.282 10.0551 9.282C10.0549 9.282 10.0547 9.282 10.0545 9.282C10.0543 9.282 10.054 9.282 10.0538 9.282C10.0536 9.282 10.0534 9.282 10.0532 9.282C10.053 9.282 10.0528 9.282 10.0526 9.282C10.0524 9.282 10.0521 9.282 10.0519 9.282C10.0517 9.282 10.0515 9.282 10.0513 9.282C10.0511 9.282 10.0509 9.282 10.0507 9.282C10.0505 9.282 10.0503 9.282 10.05 9.282C10.0498 9.282 10.0496 9.282 10.0494 9.282C10.0492 9.282 10.049 9.282 10.0488 9.282C10.0486 9.282 10.0484 9.282 10.0481 9.282C10.0479 9.282 10.0477 9.282 10.0475 9.282C10.0473 9.282 10.0471 9.282 10.0469 9.282C10.0467 9.282 10.0465 9.282 10.0462 9.282C10.046 9.282 10.0458 9.282 10.0456 9.282C10.0454 9.282 10.0452 9.282 10.045 9.282C10.0448 9.282 10.0446 9.282 10.0443 9.282C10.0441 9.282 10.0439 9.282 10.0437 9.282C10.0435 9.282 10.0433 9.282 10.0431 9.282C10.0429 9.282 10.0427 9.282 10.0424 9.282C10.0422 9.282 10.042 9.282 10.0418 9.282C10.0416 9.282 10.0414 9.282 10.0412 9.282C10.041 9.282 10.0408 9.282 10.0405 9.282C10.0403 9.282 10.0401 9.282 10.0399 9.282C10.0397 9.282 10.0395 9.282 10.0393 9.282C10.0391 9.282 10.0389 9.282 10.0386 9.282C10.0384 9.282 10.0382 9.282 10.038 9.282C10.0378 9.282 10.0376 9.282 10.0374 9.282C10.0372 9.282 10.037 9.282 10.0368 9.282C10.0365 9.282 10.0363 9.282 10.0361 9.282C10.0359 9.282 10.0357 9.282 10.0355 9.282C10.0353 9.282 10.0351 9.282 10.0349 9.282C10.0346 9.282 10.0344 9.282 10.0342 9.282C10.034 9.282 10.0338 9.282 10.0336 9.282C10.0334 9.282 10.0332 9.282 10.033 9.282C10.0327 9.282 10.0325 9.282 10.0323 9.282C10.0321 9.282 10.0319 9.282 10.0317 9.282C10.0315 9.282 10.0313 9.282 10.0311 9.282C10.0308 9.282 10.0306 9.282 10.0304 9.282C10.0302 9.282 10.03 9.282 10.0298 9.282C10.0296 9.282 10.0294 9.282 10.0292 9.282C10.0289 9.282 10.0287 9.282 10.0285 9.282C10.0283 9.282 10.0281 9.282 10.0279 9.282C10.0277 9.282 10.0275 9.282 10.0273 9.282C10.027 9.282 10.0268 9.282 10.0266 9.282C10.0264 9.282 10.0262 9.282 10.026 9.282C10.0258 9.282 10.0256 9.282 10.0254 9.282C10.0251 9.282 10.0249 9.282 10.0247 9.282C10.0245 9.282 10.0243 9.282 10.0241 9.282C10.0239 9.282 10.0237 9.282 10.0235 9.282C10.0233 9.282 10.023 9.282 10.0228 9.282C10.0226 9.282 10.0224 9.282 10.0222 9.282C10.022 9.282 10.0218 9.282 10.0216 9.282C10.0214 9.282 10.0211 9.282 10.0209 9.282C10.0207 9.282 10.0205 9.282 10.0203 9.282C10.0201 9.282 10.0199 9.282 10.0197 9.282C10.0195 9.282 10.0192 9.282 10.019 9.282C10.0188 9.282 10.0186 9.282 10.0184 9.282C10.0182 9.282 10.018 9.282 10.0178 9.282C10.0176 9.282 10.0173 9.282 10.0171 9.282C10.0169 9.282 10.0167 9.282 10.0165 9.282C10.0163 9.282 10.0161 9.282 10.0159 9.282C10.0157 9.282 10.0154 9.282 10.0152 9.282C10.015 9.282 10.0148 9.282 10.0146 9.282C10.0144 9.282 10.0142 9.282 10.014 9.282C10.0138 9.282 10.0135 9.282 10.0133 9.282C10.0131 9.282 10.0129 9.282 10.0127 9.282C10.0125 9.282 10.0123 9.282 10.0121 9.282C10.0119 9.282 10.0116 9.282 10.0114 9.282C10.0112 9.282 10.011 9.282 10.0108 9.282C10.0106 9.282 10.0104 9.282 10.0102 9.282C10.01 9.282 10.0098 9.282 10.0095 9.282C10.0093 9.282 10.0091 9.282 10.0089 9.282C10.0087 9.282 10.0085 9.282 10.0083 9.282C10.0081 9.282 10.0079 9.282 10.0076 9.282C10.0074 9.282 10.0072 9.282 10.007 9.282C10.0068 9.282 10.0066 9.282 10.0064 9.282C10.0062 9.282 10.006 9.282 10.0057 9.282C10.0055 9.282 10.0053 9.282 10.0051 9.282C10.0049 9.282 10.0047 9.282 10.0045 9.282C10.0043 9.282 10.0041 9.282 10.0038 9.282C10.0036 9.282 10.0034 9.282 10.0032 9.282C10.003 9.282 10.0028 9.282 10.0026 9.282C10.0024 9.282 10.0022 9.282 10.0019 9.282C10.0017 9.282 10.0015 9.282 10.0013 9.282C10.0011 9.282 10.0009 9.282 10.0007 9.282C10.0005 9.282 10.0003 9.282 10 9.282C9.99984 9.282 9.99963 9.282 9.99941 9.282C9.9992 9.282 9.99899 9.282 9.99878 9.282C9.99857 9.282 9.99836 9.282 9.99815 9.282C9.99794 9.282 9.99773 9.282 9.99752 9.282C9.9973 9.282 9.99709 9.282 9.99688 9.282C9.99667 9.282 9.99646 9.282 9.99625 9.282C9.99604 9.282 9.99583 9.282 9.99562 9.282C9.99541 9.282 9.9952 9.282 9.99498 9.282C9.99477 9.282 9.99456 9.282 9.99435 9.282C9.99414 9.282 9.99393 9.282 9.99372 9.282C9.99351 9.282 9.9933 9.282 9.99309 9.282C9.99288 9.282 9.99266 9.282 9.99245 9.282C9.99224 9.282 9.99203 9.282 9.99182 9.282C9.99161 9.282 9.9914 9.282 9.99119 9.282C9.99098 9.282 9.99077 9.282 9.99055 9.282C9.99034 9.282 9.99013 9.282 9.98992 9.282C9.98971 9.282 9.9895 9.282 9.98929 9.282C9.98908 9.282 9.98887 9.282 9.98866 9.282C9.98845 9.282 9.98823 9.282 9.98802 9.282C9.98781 9.282 9.9876 9.282 9.98739 9.282C9.98718 9.282 9.98697 9.282 9.98676 9.282C9.98655 9.282 9.98634 9.282 9.98613 9.282C9.98591 9.282 9.9857 9.282 9.98549 9.282C9.98528 9.282 9.98507 9.282 9.98486 9.282C9.98465 9.282 9.98444 9.282 9.98423 9.282C9.98402 9.282 9.98381 9.282 9.98359 9.282C9.98338 9.282 9.98317 9.282 9.98296 9.282C9.98275 9.282 9.98254 9.282 9.98233 9.282C9.98212 9.282 9.98191 9.282 9.9817 9.282C9.98148 9.282 9.98127 9.282 9.98106 9.282C9.98085 9.282 9.98064 9.282 9.98043 9.282C9.98022 9.282 9.98001 9.282 9.9798 9.282C9.97959 9.282 9.97938 9.282 9.97916 9.282C9.97895 9.282 9.97874 9.282 9.97853 9.282C9.97832 9.282 9.97811 9.282 9.9779 9.282C9.97769 9.282 9.97748 9.282 9.97727 9.282C9.97706 9.282 9.97684 9.282 9.97663 9.282C9.97642 9.282 9.97621 9.282 9.976 9.282V9.882C9.97621 9.882 9.97642 9.882 9.97663 9.882C9.97684 9.882 9.97706 9.882 9.97727 9.882C9.97748 9.882 9.97769 9.882 9.9779 9.882C9.97811 9.882 9.97832 9.882 9.97853 9.882C9.97874 9.882 9.97895 9.882 9.97916 9.882C9.97938 9.882 9.97959 9.882 9.9798 9.882C9.98001 9.882 9.98022 9.882 9.98043 9.882C9.98064 9.882 9.98085 9.882 9.98106 9.882C9.98127 9.882 9.98148 9.882 9.9817 9.882C9.98191 9.882 9.98212 9.882 9.98233 9.882C9.98254 9.882 9.98275 9.882 9.98296 9.882C9.98317 9.882 9.98338 9.882 9.98359 9.882C9.98381 9.882 9.98402 9.882 9.98423 9.882C9.98444 9.882 9.98465 9.882 9.98486 9.882C9.98507 9.882 9.98528 9.882 9.98549 9.882C9.9857 9.882 9.98591 9.882 9.98613 9.882C9.98634 9.882 9.98655 9.882 9.98676 9.882C9.98697 9.882 9.98718 9.882 9.98739 9.882C9.9876 9.882 9.98781 9.882 9.98802 9.882C9.98823 9.882 9.98845 9.882 9.98866 9.882C9.98887 9.882 9.98908 9.882 9.98929 9.882C9.9895 9.882 9.98971 9.882 9.98992 9.882C9.99013 9.882 9.99034 9.882 9.99055 9.882C9.99077 9.882 9.99098 9.882 9.99119 9.882C9.9914 9.882 9.99161 9.882 9.99182 9.882C9.99203 9.882 9.99224 9.882 9.99245 9.882C9.99266 9.882 9.99288 9.882 9.99309 9.882C9.9933 9.882 9.99351 9.882 9.99372 9.882C9.99393 9.882 9.99414 9.882 9.99435 9.882C9.99456 9.882 9.99477 9.882 9.99498 9.882C9.9952 9.882 9.99541 9.882 9.99562 9.882C9.99583 9.882 9.99604 9.882 9.99625 9.882C9.99646 9.882 9.99667 9.882 9.99688 9.882C9.99709 9.882 9.9973 9.882 9.99752 9.882C9.99773 9.882 9.99794 9.882 9.99815 9.882C9.99836 9.882 9.99857 9.882 9.99878 9.882C9.99899 9.882 9.9992 9.882 9.99941 9.882C9.99963 9.882 9.99984 9.882 10 9.882C10.0003 9.882 10.0005 9.882 10.0007 9.882C10.0009 9.882 10.0011 9.882 10.0013 9.882C10.0015 9.882 10.0017 9.882 10.0019 9.882C10.0022 9.882 10.0024 9.882 10.0026 9.882C10.0028 9.882 10.003 9.882 10.0032 9.882C10.0034 9.882 10.0036 9.882 10.0038 9.882C10.0041 9.882 10.0043 9.882 10.0045 9.882C10.0047 9.882 10.0049 9.882 10.0051 9.882C10.0053 9.882 10.0055 9.882 10.0057 9.882C10.006 9.882 10.0062 9.882 10.0064 9.882C10.0066 9.882 10.0068 9.882 10.007 9.882C10.0072 9.882 10.0074 9.882 10.0076 9.882C10.0079 9.882 10.0081 9.882 10.0083 9.882C10.0085 9.882 10.0087 9.882 10.0089 9.882C10.0091 9.882 10.0093 9.882 10.0095 9.882C10.0098 9.882 10.01 9.882 10.0102 9.882C10.0104 9.882 10.0106 9.882 10.0108 9.882C10.011 9.882 10.0112 9.882 10.0114 9.882C10.0116 9.882 10.0119 9.882 10.0121 9.882C10.0123 9.882 10.0125 9.882 10.0127 9.882C10.0129 9.882 10.0131 9.882 10.0133 9.882C10.0135 9.882 10.0138 9.882 10.014 9.882C10.0142 9.882 10.0144 9.882 10.0146 9.882C10.0148 9.882 10.015 9.882 10.0152 9.882C10.0154 9.882 10.0157 9.882 10.0159 9.882C10.0161 9.882 10.0163 9.882 10.0165 9.882C10.0167 9.882 10.0169 9.882 10.0171 9.882C10.0173 9.882 10.0176 9.882 10.0178 9.882C10.018 9.882 10.0182 9.882 10.0184 9.882C10.0186 9.882 10.0188 9.882 10.019 9.882C10.0192 9.882 10.0195 9.882 10.0197 9.882C10.0199 9.882 10.0201 9.882 10.0203 9.882C10.0205 9.882 10.0207 9.882 10.0209 9.882C10.0211 9.882 10.0214 9.882 10.0216 9.882C10.0218 9.882 10.022 9.882 10.0222 9.882C10.0224 9.882 10.0226 9.882 10.0228 9.882C10.023 9.882 10.0233 9.882 10.0235 9.882C10.0237 9.882 10.0239 9.882 10.0241 9.882C10.0243 9.882 10.0245 9.882 10.0247 9.882C10.0249 9.882 10.0251 9.882 10.0254 9.882C10.0256 9.882 10.0258 9.882 10.026 9.882C10.0262 9.882 10.0264 9.882 10.0266 9.882C10.0268 9.882 10.027 9.882 10.0273 9.882C10.0275 9.882 10.0277 9.882 10.0279 9.882C10.0281 9.882 10.0283 9.882 10.0285 9.882C10.0287 9.882 10.0289 9.882 10.0292 9.882C10.0294 9.882 10.0296 9.882 10.0298 9.882C10.03 9.882 10.0302 9.882 10.0304 9.882C10.0306 9.882 10.0308 9.882 10.0311 9.882C10.0313 9.882 10.0315 9.882 10.0317 9.882C10.0319 9.882 10.0321 9.882 10.0323 9.882C10.0325 9.882 10.0327 9.882 10.033 9.882C10.0332 9.882 10.0334 9.882 10.0336 9.882C10.0338 9.882 10.034 9.882 10.0342 9.882C10.0344 9.882 10.0346 9.882 10.0349 9.882C10.0351 9.882 10.0353 9.882 10.0355 9.882C10.0357 9.882 10.0359 9.882 10.0361 9.882C10.0363 9.882 10.0365 9.882 10.0368 9.882C10.037 9.882 10.0372 9.882 10.0374 9.882C10.0376 9.882 10.0378 9.882 10.038 9.882C10.0382 9.882 10.0384 9.882 10.0386 9.882C10.0389 9.882 10.0391 9.882 10.0393 9.882C10.0395 9.882 10.0397 9.882 10.0399 9.882C10.0401 9.882 10.0403 9.882 10.0405 9.882C10.0408 9.882 10.041 9.882 10.0412 9.882C10.0414 9.882 10.0416 9.882 10.0418 9.882C10.042 9.882 10.0422 9.882 10.0424 9.882C10.0427 9.882 10.0429 9.882 10.0431 9.882C10.0433 9.882 10.0435 9.882 10.0437 9.882C10.0439 9.882 10.0441 9.882 10.0443 9.882C10.0446 9.882 10.0448 9.882 10.045 9.882C10.0452 9.882 10.0454 9.882 10.0456 9.882C10.0458 9.882 10.046 9.882 10.0462 9.882C10.0465 9.882 10.0467 9.882 10.0469 9.882C10.0471 9.882 10.0473 9.882 10.0475 9.882C10.0477 9.882 10.0479 9.882 10.0481 9.882C10.0484 9.882 10.0486 9.882 10.0488 9.882C10.049 9.882 10.0492 9.882 10.0494 9.882C10.0496 9.882 10.0498 9.882 10.05 9.882C10.0503 9.882 10.0505 9.882 10.0507 9.882C10.0509 9.882 10.0511 9.882 10.0513 9.882C10.0515 9.882 10.0517 9.882 10.0519 9.882C10.0521 9.882 10.0524 9.882 10.0526 9.882C10.0528 9.882 10.053 9.882 10.0532 9.882C10.0534 9.882 10.0536 9.882 10.0538 9.882C10.054 9.882 10.0543 9.882 10.0545 9.882C10.0547 9.882 10.0549 9.882 10.0551 9.882C10.0553 9.882 10.0555 9.882 10.0557 9.882C10.0559 9.882 10.0562 9.882 10.0564 9.882C10.0566 9.882 10.0568 9.882 10.057 9.882C10.0572 9.882 10.0574 9.882 10.0576 9.882C10.0578 9.882 10.0581 9.882 10.0583 9.882C10.0585 9.882 10.0587 9.882 10.0589 9.882C10.0591 9.882 10.0593 9.882 10.0595 9.882C10.0597 9.882 10.06 9.882 10.0602 9.882C10.0604 9.882 10.0606 9.882 10.0608 9.882C10.061 9.882 10.0612 9.882 10.0614 9.882C10.0616 9.882 10.0619 9.882 10.0621 9.882C10.0623 9.882 10.0625 9.882 10.0627 9.882C10.0629 9.882 10.0631 9.882 10.0633 9.882C10.0635 9.882 10.0638 9.882 10.064 9.882C10.0642 9.882 10.0644 9.882 10.0646 9.882C10.0648 9.882 10.065 9.882 10.0652 9.882C10.0654 9.882 10.0656 9.882 10.0659 9.882C10.0661 9.882 10.0663 9.882 10.0665 9.882C10.0667 9.882 10.0669 9.882 10.0671 9.882C10.0673 9.882 10.0675 9.882 10.0678 9.882C10.068 9.882 10.0682 9.882 10.0684 9.882C10.0686 9.882 10.0688 9.882 10.069 9.882C10.0692 9.882 10.0694 9.882 10.0697 9.882C10.0699 9.882 10.0701 9.882 10.0703 9.882C10.0705 9.882 10.0707 9.882 10.0709 9.882C10.0711 9.882 10.0713 9.882 10.0716 9.882C10.0718 9.882 10.072 9.882 10.0722 9.882C10.0724 9.882 10.0726 9.882 10.0728 9.882C10.073 9.882 10.0732 9.882 10.0735 9.882C10.0737 9.882 10.0739 9.882 10.0741 9.882C10.0743 9.882 10.0745 9.882 10.0747 9.882C10.0749 9.882 10.0751 9.882 10.0754 9.882C10.0756 9.882 10.0758 9.882 10.076 9.882C10.0762 9.882 10.0764 9.882 10.0766 9.882C10.0768 9.882 10.077 9.882 10.0773 9.882C10.0775 9.882 10.0777 9.882 10.0779 9.882C10.0781 9.882 10.0783 9.882 10.0785 9.882C10.0787 9.882 10.0789 9.882 10.0791 9.882C10.0794 9.882 10.0796 9.882 10.0798 9.882C10.08 9.882 10.0802 9.882 10.0804 9.882C10.0806 9.882 10.0808 9.882 10.081 9.882C10.0813 9.882 10.0815 9.882 10.0817 9.882C10.0819 9.882 10.0821 9.882 10.0823 9.882C10.0825 9.882 10.0827 9.882 10.0829 9.882C10.0832 9.882 10.0834 9.882 10.0836 9.882C10.0838 9.882 10.084 9.882 10.0842 9.882C10.0844 9.882 10.0846 9.882 10.0848 9.882C10.0851 9.882 10.0853 9.882 10.0855 9.882C10.0857 9.882 10.0859 9.882 10.0861 9.882C10.0863 9.882 10.0865 9.882 10.0867 9.882C10.087 9.882 10.0872 9.882 10.0874 9.882C10.0876 9.882 10.0878 9.882 10.088 9.882C10.0882 9.882 10.0884 9.882 10.0886 9.882C10.0889 9.882 10.0891 9.882 10.0893 9.882C10.0895 9.882 10.0897 9.882 10.0899 9.882C10.0901 9.882 10.0903 9.882 10.0905 9.882C10.0908 9.882 10.091 9.882 10.0912 9.882C10.0914 9.882 10.0916 9.882 10.0918 9.882C10.092 9.882 10.0922 9.882 10.0924 9.882C10.0926 9.882 10.0929 9.882 10.0931 9.882C10.0933 9.882 10.0935 9.882 10.0937 9.882C10.0939 9.882 10.0941 9.882 10.0943 9.882C10.0945 9.882 10.0948 9.882 10.095 9.882C10.0952 9.882 10.0954 9.882 10.0956 9.882C10.0958 9.882 10.096 9.882 10.0962 9.882C10.0964 9.882 10.0967 9.882 10.0969 9.882C10.0971 9.882 10.0973 9.882 10.0975 9.882C10.0977 9.882 10.0979 9.882 10.0981 9.882C10.0983 9.882 10.0986 9.882 10.0988 9.882C10.099 9.882 10.0992 9.882 10.0994 9.882C10.0996 9.882 10.0998 9.882 10.1 9.882C10.1002 9.882 10.1005 9.882 10.1007 9.882C10.1009 9.882 10.1011 9.882 10.1013 9.882C10.1015 9.882 10.1017 9.882 10.1019 9.882C10.1021 9.882 10.1024 9.882 10.1026 9.882C10.1028 9.882 10.103 9.882 10.1032 9.882C10.1034 9.882 10.1036 9.882 10.1038 9.882C10.104 9.882 10.1043 9.882 10.1045 9.882C10.1047 9.882 10.1049 9.882 10.1051 9.882C10.1053 9.882 10.1055 9.882 10.1057 9.882C10.1059 9.882 10.1061 9.882 10.1064 9.882C10.1066 9.882 10.1068 9.882 10.107 9.882C10.1072 9.882 10.1074 9.882 10.1076 9.882C10.1078 9.882 10.108 9.882 10.1083 9.882C10.1085 9.882 10.1087 9.882 10.1089 9.882C10.1091 9.882 10.1093 9.882 10.1095 9.882C10.1097 9.882 10.1099 9.882 10.1102 9.882C10.1104 9.882 10.1106 9.882 10.1108 9.882C10.111 9.882 10.1112 9.882 10.1114 9.882C10.1116 9.882 10.1118 9.882 10.1121 9.882C10.1123 9.882 10.1125 9.882 10.1127 9.882C10.1129 9.882 10.1131 9.882 10.1133 9.882C10.1135 9.882 10.1137 9.882 10.114 9.882C10.1142 9.882 10.1144 9.882 10.1146 9.882C10.1148 9.882 10.115 9.882 10.1152 9.882C10.1154 9.882 10.1156 9.882 10.1159 9.882C10.1161 9.882 10.1163 9.882 10.1165 9.882C10.1167 9.882 10.1169 9.882 10.1171 9.882C10.1173 9.882 10.1175 9.882 10.1178 9.882C10.118 9.882 10.1182 9.882 10.1184 9.882C10.1186 9.882 10.1188 9.882 10.119 9.882C10.1192 9.882 10.1194 9.882 10.1196 9.882C10.1199 9.882 10.1201 9.882 10.1203 9.882C10.1205 9.882 10.1207 9.882 10.1209 9.882C10.1211 9.882 10.1213 9.882 10.1215 9.882C10.1218 9.882 10.122 9.882 10.1222 9.882C10.1224 9.882 10.1226 9.882 10.1228 9.882C10.123 9.882 10.1232 9.882 10.1234 9.882C10.1237 9.882 10.1239 9.882 10.1241 9.882C10.1243 9.882 10.1245 9.882 10.1247 9.882C10.1249 9.882 10.1251 9.882 10.1253 9.882C10.1256 9.882 10.1258 9.882 10.126 9.882C10.1262 9.882 10.1264 9.882 10.1266 9.882C10.1268 9.882 10.127 9.882 10.1272 9.882C10.1275 9.882 10.1277 9.882 10.1279 9.882C10.1281 9.882 10.1283 9.882 10.1285 9.882C10.1287 9.882 10.1289 9.882 10.1291 9.882C10.1294 9.882 10.1296 9.882 10.1298 9.882C10.13 9.882 10.1302 9.882 10.1304 9.882C10.1306 9.882 10.1308 9.882 10.131 9.882C10.1313 9.882 10.1315 9.882 10.1317 9.882C10.1319 9.882 10.1321 9.882 10.1323 9.882C10.1325 9.882 10.1327 9.882 10.1329 9.882C10.1331 9.882 10.1334 9.882 10.1336 9.882C10.1338 9.882 10.134 9.882 10.1342 9.882C10.1344 9.882 10.1346 9.882 10.1348 9.882C10.135 9.882 10.1353 9.882 10.1355 9.882C10.1357 9.882 10.1359 9.882 10.1361 9.882C10.1363 9.882 10.1365 9.882 10.1367 9.882C10.1369 9.882 10.1372 9.882 10.1374 9.882C10.1376 9.882 10.1378 9.882 10.138 9.882C10.1382 9.882 10.1384 9.882 10.1386 9.882C10.1388 9.882 10.1391 9.882 10.1393 9.882C10.1395 9.882 10.1397 9.882 10.1399 9.882C10.1401 9.882 10.1403 9.882 10.1405 9.882C10.1407 9.882 10.141 9.882 10.1412 9.882C10.1414 9.882 10.1416 9.882 10.1418 9.882C10.142 9.882 10.1422 9.882 10.1424 9.882C10.1426 9.882 10.1429 9.882 10.1431 9.882C10.1433 9.882 10.1435 9.882 10.1437 9.882C10.1439 9.882 10.1441 9.882 10.1443 9.882C10.1445 9.882 10.1448 9.882 10.145 9.882C10.1452 9.882 10.1454 9.882 10.1456 9.882C10.1458 9.882 10.146 9.882 10.1462 9.882C10.1464 9.882 10.1466 9.882 10.1469 9.882C10.1471 9.882 10.1473 9.882 10.1475 9.882C10.1477 9.882 10.1479 9.882 10.1481 9.882C10.1483 9.882 10.1485 9.882 10.1488 9.882C10.149 9.882 10.1492 9.882 10.1494 9.882C10.1496 9.882 10.1498 9.882 10.15 9.882C10.1502 9.882 10.1504 9.882 10.1507 9.882C10.1509 9.882 10.1511 9.882 10.1513 9.882C10.1515 9.882 10.1517 9.882 10.1519 9.882C10.1521 9.882 10.1523 9.882 10.1526 9.882C10.1528 9.882 10.153 9.882 10.1532 9.882C10.1534 9.882 10.1536 9.882 10.1538 9.882C10.154 9.882 10.1542 9.882 10.1545 9.882C10.1547 9.882 10.1549 9.882 10.1551 9.882C10.1553 9.882 10.1555 9.882 10.1557 9.882C10.1559 9.882 10.1561 9.882 10.1564 9.882C10.1566 9.882 10.1568 9.882 10.157 9.882C10.1572 9.882 10.1574 9.882 10.1576 9.882C10.1578 9.882 10.158 9.882 10.1583 9.882C10.1585 9.882 10.1587 9.882 10.1589 9.882C10.1591 9.882 10.1593 9.882 10.1595 9.882C10.1597 9.882 10.1599 9.882 10.1601 9.882C10.1604 9.882 10.1606 9.882 10.1608 9.882C10.161 9.882 10.1612 9.882 10.1614 9.882C10.1616 9.882 10.1618 9.882 10.162 9.882C10.1623 9.882 10.1625 9.882 10.1627 9.882C10.1629 9.882 10.1631 9.882 10.1633 9.882C10.1635 9.882 10.1637 9.882 10.1639 9.882C10.1642 9.882 10.1644 9.882 10.1646 9.882C10.1648 9.882 10.165 9.882 10.1652 9.882C10.1654 9.882 10.1656 9.882 10.1658 9.882C10.1661 9.882 10.1663 9.882 10.1665 9.882C10.1667 9.882 10.1669 9.882 10.1671 9.882C10.1673 9.882 10.1675 9.882 10.1677 9.882C10.168 9.882 10.1682 9.882 10.1684 9.882C10.1686 9.882 10.1688 9.882 10.169 9.882C10.1692 9.882 10.1694 9.882 10.1696 9.882C10.1699 9.882 10.1701 9.882 10.1703 9.882C10.1705 9.882 10.1707 9.882 10.1709 9.882C10.1711 9.882 10.1713 9.882 10.1715 9.882C10.1718 9.882 10.172 9.882 10.1722 9.882C10.1724 9.882 10.1726 9.882 10.1728 9.882C10.173 9.882 10.1732 9.882 10.1734 9.882C10.1736 9.882 10.1739 9.882 10.1741 9.882C10.1743 9.882 10.1745 9.882 10.1747 9.882C10.1749 9.882 10.1751 9.882 10.1753 9.882C10.1755 9.882 10.1758 9.882 10.176 9.882C10.1762 9.882 10.1764 9.882 10.1766 9.882C10.1768 9.882 10.177 9.882 10.1772 9.882C10.1774 9.882 10.1777 9.882 10.1779 9.882C10.1781 9.882 10.1783 9.882 10.1785 9.882C10.1787 9.882 10.1789 9.882 10.1791 9.882C10.1793 9.882 10.1796 9.882 10.1798 9.882C10.18 9.882 10.1802 9.882 10.1804 9.882C10.1806 9.882 10.1808 9.882 10.181 9.882C10.1812 9.882 10.1815 9.882 10.1817 9.882C10.1819 9.882 10.1821 9.882 10.1823 9.882C10.1825 9.882 10.1827 9.882 10.1829 9.882C10.1831 9.882 10.1834 9.882 10.1836 9.882C10.1838 9.882 10.184 9.882 10.1842 9.882C10.1844 9.882 10.1846 9.882 10.1848 9.882C10.185 9.882 10.1853 9.882 10.1855 9.882C10.1857 9.882 10.1859 9.882 10.1861 9.882C10.1863 9.882 10.1865 9.882 10.1867 9.882C10.1869 9.882 10.1871 9.882 10.1874 9.882C10.1876 9.882 10.1878 9.882 10.188 9.882C10.1882 9.882 10.1884 9.882 10.1886 9.882C10.1888 9.882 10.189 9.882 10.1893 9.882C10.1895 9.882 10.1897 9.882 10.1899 9.882C10.1901 9.882 10.1903 9.882 10.1905 9.882C10.1907 9.882 10.1909 9.882 10.1912 9.882C10.1914 9.882 10.1916 9.882 10.1918 9.882C10.192 9.882 10.1922 9.882 10.1924 9.882C10.1926 9.882 10.1928 9.882 10.1931 9.882C10.1933 9.882 10.1935 9.882 10.1937 9.882C10.1939 9.882 10.1941 9.882 10.1943 9.882C10.1945 9.882 10.1947 9.882 10.195 9.882C10.1952 9.882 10.1954 9.882 10.1956 9.882C10.1958 9.882 10.196 9.882 10.1962 9.882C10.1964 9.882 10.1966 9.882 10.1969 9.882C10.1971 9.882 10.1973 9.882 10.1975 9.882C10.1977 9.882 10.1979 9.882 10.1981 9.882C10.1983 9.882 10.1985 9.882 10.1988 9.882C10.199 9.882 10.1992 9.882 10.1994 9.882C10.1996 9.882 10.1998 9.882 10.2 9.882C10.2002 9.882 10.2004 9.882 10.2006 9.882C10.2009 9.882 10.2011 9.882 10.2013 9.882C10.2015 9.882 10.2017 9.882 10.2019 9.882C10.2021 9.882 10.2023 9.882 10.2025 9.882C10.2028 9.882 10.203 9.882 10.2032 9.882C10.2034 9.882 10.2036 9.882 10.2038 9.882C10.204 9.882 10.2042 9.882 10.2044 9.882C10.2047 9.882 10.2049 9.882 10.2051 9.882C10.2053 9.882 10.2055 9.882 10.2057 9.882C10.2059 9.882 10.2061 9.882 10.2063 9.882C10.2066 9.882 10.2068 9.882 10.207 9.882C10.2072 9.882 10.2074 9.882 10.2076 9.882C10.2078 9.882 10.208 9.882 10.2082 9.882C10.2085 9.882 10.2087 9.882 10.2089 9.882C10.2091 9.882 10.2093 9.882 10.2095 9.882C10.2097 9.882 10.2099 9.882 10.2101 9.882C10.2104 9.882 10.2106 9.882 10.2108 9.882C10.211 9.882 10.2112 9.882 10.2114 9.882C10.2116 9.882 10.2118 9.882 10.212 9.882C10.2123 9.882 10.2125 9.882 10.2127 9.882C10.2129 9.882 10.2131 9.882 10.2133 9.882C10.2135 9.882 10.2137 9.882 10.2139 9.882C10.2141 9.882 10.2144 9.882 10.2146 9.882C10.2148 9.882 10.215 9.882 10.2152 9.882C10.2154 9.882 10.2156 9.882 10.2158 9.882C10.216 9.882 10.2163 9.882 10.2165 9.882C10.2167 9.882 10.2169 9.882 10.2171 9.882C10.2173 9.882 10.2175 9.882 10.2177 9.882C10.2179 9.882 10.2182 9.882 10.2184 9.882C10.2186 9.882 10.2188 9.882 10.219 9.882C10.2192 9.882 10.2194 9.882 10.2196 9.882C10.2198 9.882 10.2201 9.882 10.2203 9.882C10.2205 9.882 10.2207 9.882 10.2209 9.882C10.2211 9.882 10.2213 9.882 10.2215 9.882C10.2217 9.882 10.222 9.882 10.2222 9.882C10.2224 9.882 10.2226 9.882 10.2228 9.882C10.223 9.882 10.2232 9.882 10.2234 9.882C10.2236 9.882 10.2239 9.882 10.2241 9.882C10.2243 9.882 10.2245 9.882 10.2247 9.882C10.2249 9.882 10.2251 9.882 10.2253 9.882C10.2255 9.882 10.2258 9.882 10.226 9.882C10.2262 9.882 10.2264 9.882 10.2266 9.882C10.2268 9.882 10.227 9.882 10.2272 9.882C10.2274 9.882 10.2276 9.882 10.2279 9.882C10.2281 9.882 10.2283 9.882 10.2285 9.882C10.2287 9.882 10.2289 9.882 10.2291 9.882C10.2293 9.882 10.2295 9.882 10.2298 9.882C10.23 9.882 10.2302 9.882 10.2304 9.882C10.2306 9.882 10.2308 9.882 10.231 9.882C10.2312 9.882 10.2314 9.882 10.2317 9.882C10.2319 9.882 10.2321 9.882 10.2323 9.882C10.2325 9.882 10.2327 9.882 10.2329 9.882C10.2331 9.882 10.2333 9.882 10.2336 9.882C10.2338 9.882 10.234 9.882 10.2342 9.882C10.2344 9.882 10.2346 9.882 10.2348 9.882C10.235 9.882 10.2352 9.882 10.2355 9.882C10.2357 9.882 10.2359 9.882 10.2361 9.882C10.2363 9.882 10.2365 9.882 10.2367 9.882C10.2369 9.882 10.2371 9.882 10.2374 9.882C10.2376 9.882 10.2378 9.882 10.238 9.882C10.2382 9.882 10.2384 9.882 10.2386 9.882C10.2388 9.882 10.239 9.882 10.2393 9.882C10.2395 9.882 10.2397 9.882 10.2399 9.882C10.2401 9.882 10.2403 9.882 10.2405 9.882C10.2407 9.882 10.2409 9.882 10.2411 9.882C10.2414 9.882 10.2416 9.882 10.2418 9.882C10.242 9.882 10.2422 9.882 10.2424 9.882C10.2426 9.882 10.2428 9.882 10.243 9.882C10.2433 9.882 10.2435 9.882 10.2437 9.882C10.2439 9.882 10.2441 9.882 10.2443 9.882C10.2445 9.882 10.2447 9.882 10.2449 9.882C10.2452 9.882 10.2454 9.882 10.2456 9.882C10.2458 9.882 10.246 9.882 10.2462 9.882C10.2464 9.882 10.2466 9.882 10.2468 9.882C10.2471 9.882 10.2473 9.882 10.2475 9.882C10.2477 9.882 10.2479 9.882 10.2481 9.882C10.2483 9.882 10.2485 9.882 10.2487 9.882C10.249 9.882 10.2492 9.882 10.2494 9.882C10.2496 9.882 10.2498 9.882 10.25 9.882C10.2502 9.882 10.2504 9.882 10.2506 9.882C10.2509 9.882 10.2511 9.882 10.2513 9.882C10.2515 9.882 10.2517 9.882 10.2519 9.882C10.2521 9.882 10.2523 9.882 10.2525 9.882C10.2528 9.882 10.253 9.882 10.2532 9.882C10.2534 9.882 10.2536 9.882 10.2538 9.882C10.254 9.882 10.2542 9.882 10.2544 9.882C10.2546 9.882 10.2549 9.882 10.2551 9.882C10.2553 9.882 10.2555 9.882 10.2557 9.882C10.2559 9.882 10.2561 9.882 10.2563 9.882C10.2565 9.882 10.2568 9.882 10.257 9.882C10.2572 9.882 10.2574 9.882 10.2576 9.882C10.2578 9.882 10.258 9.882 10.2582 9.882C10.2584 9.882 10.2587 9.882 10.2589 9.882C10.2591 9.882 10.2593 9.882 10.2595 9.882C10.2597 9.882 10.2599 9.882 10.2601 9.882C10.2603 9.882 10.2606 9.882 10.2608 9.882C10.261 9.882 10.2612 9.882 10.2614 9.882C10.2616 9.882 10.2618 9.882 10.262 9.882C10.2622 9.882 10.2625 9.882 10.2627 9.882C10.2629 9.882 10.2631 9.882 10.2633 9.882C10.2635 9.882 10.2637 9.882 10.2639 9.882C10.2641 9.882 10.2644 9.882 10.2646 9.882C10.2648 9.882 10.265 9.882 10.2652 9.882C10.2654 9.882 10.2656 9.882 10.2658 9.882C10.266 9.882 10.2663 9.882 10.2665 9.882C10.2667 9.882 10.2669 9.882 10.2671 9.882C10.2673 9.882 10.2675 9.882 10.2677 9.882C10.2679 9.882 10.2681 9.882 10.2684 9.882C10.2686 9.882 10.2688 9.882 10.269 9.882C10.2692 9.882 10.2694 9.882 10.2696 9.882C10.2698 9.882 10.27 9.882 10.2703 9.882C10.2705 9.882 10.2707 9.882 10.2709 9.882C10.2711 9.882 10.2713 9.882 10.2715 9.882C10.2717 9.882 10.2719 9.882 10.2722 9.882C10.2724 9.882 10.2726 9.882 10.2728 9.882C10.273 9.882 10.2732 9.882 10.2734 9.882C10.2736 9.882 10.2738 9.882 10.2741 9.882C10.2743 9.882 10.2745 9.882 10.2747 9.882C10.2749 9.882 10.2751 9.882 10.2753 9.882C10.2755 9.882 10.2757 9.882 10.276 9.882C10.2762 9.882 10.2764 9.882 10.2766 9.882C10.2768 9.882 10.277 9.882 10.2772 9.882C10.2774 9.882 10.2776 9.882 10.2779 9.882C10.2781 9.882 10.2783 9.882 10.2785 9.882C10.2787 9.882 10.2789 9.882 10.2791 9.882C10.2793 9.882 10.2795 9.882 10.2798 9.882C10.28 9.882 10.2802 9.882 10.2804 9.882C10.2806 9.882 10.2808 9.882 10.281 9.882C10.2812 9.882 10.2814 9.882 10.2816 9.882C10.2819 9.882 10.2821 9.882 10.2823 9.882C10.2825 9.882 10.2827 9.882 10.2829 9.882C10.2831 9.882 10.2833 9.882 10.2835 9.882C10.2838 9.882 10.284 9.882 10.2842 9.882C10.2844 9.882 10.2846 9.882 10.2848 9.882C10.285 9.882 10.2852 9.882 10.2854 9.882C10.2857 9.882 10.2859 9.882 10.2861 9.882C10.2863 9.882 10.2865 9.882 10.2867 9.882C10.2869 9.882 10.2871 9.882 10.2873 9.882C10.2876 9.882 10.2878 9.882 10.288 9.882C10.2882 9.882 10.2884 9.882 10.2886 9.882C10.2888 9.882 10.289 9.882 10.2892 9.882C10.2895 9.882 10.2897 9.882 10.2899 9.882C10.2901 9.882 10.2903 9.882 10.2905 9.882C10.2907 9.882 10.2909 9.882 10.2911 9.882C10.2914 9.882 10.2916 9.882 10.2918 9.882C10.292 9.882 10.2922 9.882 10.2924 9.882C10.2926 9.882 10.2928 9.882 10.293 9.882C10.2933 9.882 10.2935 9.882 10.2937 9.882C10.2939 9.882 10.2941 9.882 10.2943 9.882C10.2945 9.882 10.2947 9.882 10.2949 9.882C10.2951 9.882 10.2954 9.882 10.2956 9.882C10.2958 9.882 10.296 9.882 10.2962 9.882C10.2964 9.882 10.2966 9.882 10.2968 9.882C10.297 9.882 10.2973 9.882 10.2975 9.882C10.2977 9.882 10.2979 9.882 10.2981 9.882C10.2983 9.882 10.2985 9.882 10.2987 9.882C10.2989 9.882 10.2992 9.882 10.2994 9.882C10.2996 9.882 10.2998 9.882 10.3 9.882V9.282ZM9.976 9.282H7.672V9.882H9.976V9.282ZM7.372 9.582V14.064H7.972V9.582H7.372ZM7.372 14.064C7.372 14.2517 7.31132 14.3964 7.18987 14.5179L7.61413 14.9421C7.85268 14.7036 7.972 14.4043 7.972 14.064H7.372ZM7.18268 14.5253C7.07858 14.6368 6.93996 14.7 6.736 14.7V15.3C7.08404 15.3 7.38942 15.1832 7.62132 14.9347L7.18268 14.5253ZM7.672 8.154H9.976V7.554H7.672V8.154ZM9.976 8.154C10.8511 8.154 11.5966 7.9079 12.1881 7.39705L11.7959 6.94295C11.3314 7.3441 10.7329 7.554 9.976 7.554V8.154ZM12.191 7.3945C12.7859 6.86718 13.084 6.18418 13.084 5.37H12.484C12.484 6.01982 12.2541 6.53682 11.793 6.9455L12.191 7.3945ZM13.084 5.37C13.084 4.50376 12.7918 3.77474 12.1991 3.20899L11.7849 3.64301C12.2482 4.08526 12.484 4.65224 12.484 5.37H13.084ZM12.1991 3.20899C11.6086 2.64527 10.8593 2.37 9.976 2.37V2.97C10.7247 2.97 11.3194 3.19873 11.7849 3.64301L12.1991 3.20899ZM9.976 2.37H7.672V2.97H9.976V2.37ZM7.372 2.67V7.854H7.972V2.67H7.372ZM18.685 14.442L18.5379 14.7035L18.5428 14.7061L18.685 14.442ZM16.867 12.678L16.6065 12.8269L16.6094 12.8317L16.867 12.678ZM16.831 7.494L16.5688 7.3483L16.568 7.34975L16.831 7.494ZM18.559 5.73L18.7084 5.99023L18.7115 5.98836L18.559 5.73ZM23.491 5.712L23.332 5.96642L23.3354 5.96844L23.491 5.712ZM25.021 7.422L24.7501 7.55083L24.7527 7.55616L25.021 7.422ZM25.327 10.5L25.5307 10.7206L25.5392 10.7121L25.327 10.5ZM17.893 10.716V10.416H17.5414L17.5968 10.7632L17.893 10.716ZM19.027 12.75L18.8332 12.9791L18.838 12.983L19.027 12.75ZM22.483 13.326L22.5806 13.6098L22.5856 13.6079L22.483 13.326ZM23.437 12.84L23.2596 12.5981L23.257 12.6L23.437 12.84ZM24.013 12.642V12.942H24.0214L24.0297 12.9415L24.013 12.642ZM24.571 12.822L24.7696 12.597L24.7648 12.593L24.571 12.822ZM24.895 13.416L25.1946 13.3994L24.895 13.416ZM24.607 13.974L24.4248 13.7357L24.4205 13.7391L24.607 13.974ZM23.077 14.766L22.9822 14.4814L22.9805 14.482L23.077 14.766ZM17.911 9.276L17.616 9.22154L17.5506 9.576H17.911V9.276ZM23.905 9.276V9.576H24.2502L24.2021 9.23422L23.905 9.276ZM23.023 7.386L22.8058 7.59291L22.8083 7.5955L23.023 7.386ZM21.349 14.772C20.3964 14.772 19.5584 14.5715 18.8273 14.1779L18.5428 14.7061C19.3717 15.1525 20.3097 15.372 21.349 15.372V14.772ZM18.8321 14.1805C18.1089 13.7737 17.5414 13.2225 17.1247 12.5243L16.6094 12.8317C17.0807 13.6215 17.7252 14.2463 18.538 14.7035L18.8321 14.1805ZM17.1275 12.5292C16.7243 11.8236 16.519 11.012 16.519 10.086H15.919C15.919 11.104 16.1458 12.0204 16.6066 12.8268L17.1275 12.5292ZM16.519 10.086C16.519 9.14432 16.714 8.33143 17.0941 7.63825L16.568 7.34975C16.1321 8.14457 15.919 9.05968 15.919 10.086H16.519ZM17.0933 7.63969C17.4875 6.93019 18.0249 6.38233 18.7083 5.99021L18.4097 5.46979C17.6292 5.91767 17.0146 6.54581 16.5688 7.34831L17.0933 7.63969ZM18.7115 5.98836C19.3922 5.58667 20.1783 5.382 21.079 5.382V4.782C20.0838 4.782 19.1899 5.00933 18.4066 5.47164L18.7115 5.98836ZM21.079 5.382C21.9691 5.382 22.7158 5.58123 23.332 5.9664L23.65 5.4576C22.9223 5.00277 22.061 4.782 21.079 4.782V5.382ZM23.3354 5.96844C23.9557 6.34507 24.4264 6.86995 24.7501 7.55081L25.292 7.29319C24.9197 6.51005 24.3704 5.89493 23.6467 5.45556L23.3354 5.96844ZM24.7527 7.55616C25.0885 8.22772 25.261 9.01434 25.261 9.924H25.861C25.861 8.93766 25.6736 8.05628 25.2894 7.28784L24.7527 7.55616ZM25.261 9.924C25.261 10.0754 25.2126 10.1902 25.1149 10.2879L25.5392 10.7121C25.7535 10.4978 25.861 10.2286 25.861 9.924H25.261ZM25.1236 10.2796C25.0303 10.3656 24.9082 10.416 24.733 10.416V11.016C25.0379 11.016 25.3118 10.9224 25.5305 10.7204L25.1236 10.2796ZM24.733 10.416H17.893V11.016H24.733V10.416ZM17.5968 10.7632C17.7398 11.6601 18.1529 12.4033 18.8333 12.979L19.2208 12.521C18.6532 12.0407 18.3103 11.4279 18.1893 10.6688L17.5968 10.7632ZM18.838 12.983C19.5336 13.5473 20.3765 13.824 21.349 13.824V13.224C20.4976 13.224 19.7925 12.9847 19.2161 12.517L18.838 12.983ZM21.349 13.824C21.7571 13.824 22.1681 13.7515 22.5806 13.6097L22.3855 13.0423C22.03 13.1645 21.685 13.224 21.349 13.224V13.824ZM22.5856 13.6079C22.999 13.4576 23.346 13.2833 23.617 13.08L23.257 12.6C23.0481 12.7567 22.7591 12.9064 22.3805 13.0441L22.5856 13.6079ZM23.6145 13.0819C23.7481 12.9839 23.8789 12.942 24.013 12.942V12.342C23.7392 12.342 23.486 12.4321 23.2596 12.5981L23.6145 13.0819ZM24.0297 12.9415C24.1741 12.9335 24.2835 12.9717 24.3773 13.051L24.7648 12.593C24.5466 12.4083 24.284 12.3265 23.9964 12.3425L24.0297 12.9415ZM24.3726 13.047C24.5327 13.1883 24.589 13.3163 24.5955 13.4326L25.1946 13.3994C25.1771 13.0837 25.0174 12.8157 24.7695 12.597L24.3726 13.047ZM24.5955 13.4326C24.6009 13.5299 24.5669 13.6271 24.4248 13.7357L24.7893 14.2123C25.0552 14.0089 25.2132 13.7341 25.1946 13.3994L24.5955 13.4326ZM24.4205 13.7391C24.0456 14.0368 23.5686 14.2859 22.9822 14.4814L23.1719 15.0506C23.8095 14.8381 24.3525 14.5592 24.7936 14.2089L24.4205 13.7391ZM22.9805 14.482C22.407 14.6769 21.8637 14.772 21.349 14.772V15.372C21.9384 15.372 22.547 15.2631 23.1736 15.05L22.9805 14.482ZM21.079 6.33C20.1332 6.33 19.3416 6.59355 18.735 7.14624L19.1391 7.58976C19.6125 7.15845 20.2489 6.93 21.079 6.93V6.33ZM18.735 7.14624C18.1423 7.68621 17.7708 8.38298 17.616 9.22154L18.2061 9.33046C18.3393 8.60902 18.6517 8.03379 19.1391 7.58976L18.735 7.14624ZM17.911 9.576H23.905V8.976H17.911V9.576ZM24.2021 9.23422C24.0864 8.41146 23.768 7.71999 23.2378 7.1765L22.8083 7.5955C23.2381 8.03601 23.5077 8.60454 23.608 9.31778L24.2021 9.23422ZM23.2403 7.1791C22.6939 6.60536 21.9618 6.33 21.079 6.33V6.93C21.8283 6.93 22.3922 7.15864 22.8058 7.5929L23.2403 7.1791ZM29.7472 14.388L29.476 14.5166L29.4805 14.5254L29.7472 14.388ZM25.9312 6.342L25.6597 6.46974L25.6601 6.47056L25.9312 6.342ZM25.8952 5.748L25.6176 5.63372L25.6143 5.64266L25.8952 5.748ZM26.3632 5.28L26.4917 5.55139L26.5035 5.54514L26.3632 5.28ZM26.9752 5.226L26.8753 5.50894L26.8803 5.5106L26.9752 5.226ZM27.4612 5.64L27.7333 5.51373L27.73 5.50659L27.7263 5.49963L27.4612 5.64ZM30.5932 12.39L30.321 12.5163L30.5947 13.1062L30.8659 12.5151L30.5932 12.39ZM33.6892 5.64L33.424 5.49963L33.42 5.50717L33.4165 5.51493L33.6892 5.64ZM34.1752 5.226L34.0848 4.93989L34.0803 4.94139L34.1752 5.226ZM34.8592 5.28L34.7307 5.5512L34.7373 5.55414L34.8592 5.28ZM35.2912 5.73L35.5741 5.63015V5.63015L35.2912 5.73ZM35.2552 6.342L35.5262 6.47056L35.5266 6.46974L35.2552 6.342ZM31.4392 14.388L31.1681 14.2594L31.1661 14.2639L31.4392 14.388ZM30.6112 14.682C30.376 14.682 30.1787 14.5706 30.0139 14.2506L29.4805 14.5254C29.7237 14.9974 30.1024 15.282 30.6112 15.282V14.682ZM30.0182 14.2594L26.2022 6.21344L25.6601 6.47056L29.4761 14.5166L30.0182 14.2594ZM26.2026 6.21426C26.1373 6.07546 26.1355 5.96162 26.1761 5.85334L25.6143 5.64266C25.5109 5.91838 25.533 6.20054 25.6597 6.46974L26.2026 6.21426ZM26.1726 5.86223C26.2241 5.73715 26.3207 5.63208 26.4916 5.55112L26.2347 5.00888C25.9497 5.14392 25.7343 5.35085 25.6178 5.63378L26.1726 5.86223ZM26.5035 5.54514C26.639 5.4734 26.7561 5.46682 26.8753 5.5089L27.075 4.9431C26.7862 4.84118 26.4953 4.8706 26.2228 5.01486L26.5035 5.54514ZM26.8803 5.5106C27.022 5.55783 27.1236 5.6435 27.196 5.78037L27.7263 5.49963C27.5828 5.2285 27.3603 5.03816 27.07 4.94139L26.8803 5.5106ZM27.189 5.76627L30.321 12.5163L30.8653 12.2637L27.7333 5.51373L27.189 5.76627ZM30.8659 12.5151L33.9619 5.76507L33.4165 5.51493L30.3205 12.2649L30.8659 12.5151ZM33.9543 5.78037C34.0268 5.6435 34.1283 5.55783 34.27 5.5106L34.0803 4.94139C33.79 5.03816 33.5676 5.2285 33.424 5.49963L33.9543 5.78037ZM34.2655 5.51207C34.4171 5.46422 34.567 5.47357 34.7307 5.55112L34.9876 5.00888C34.6953 4.87043 34.3893 4.84378 34.0848 4.93992L34.2655 5.51207ZM34.7373 5.55414C34.8857 5.6201 34.9664 5.71127 35.0083 5.82984L35.5741 5.63015C35.4719 5.34073 35.2646 5.1319 34.981 5.00586L34.7373 5.55414ZM35.0083 5.82984C35.0528 5.95601 35.0477 6.07831 34.9837 6.21426L35.5266 6.46974C35.6546 6.19769 35.6735 5.91199 35.5741 5.63015L35.0083 5.82984ZM34.9841 6.21344L31.1681 14.2594L31.7102 14.5166L35.5262 6.47056L34.9841 6.21344ZM31.1661 14.2639C31.0918 14.4272 31.0073 14.5288 30.9223 14.5897C30.8401 14.6487 30.7407 14.682 30.6112 14.682V15.282C30.8536 15.282 31.0782 15.2163 31.272 15.0773C31.4631 14.9402 31.6065 14.7448 31.7123 14.5121L31.1661 14.2639ZM37.3045 14.748L37.0852 14.9527L37.0922 14.9603L37.0998 14.9673L37.3045 14.748ZM37.3045 5.406L37.0997 5.18655L37.0924 5.19387L37.3045 5.406ZM38.6365 14.748L38.8488 14.9603L38.8558 14.9527L38.6365 14.748ZM37.1245 3.21L36.907 3.41662L36.9123 3.4222L36.9179 3.4275L37.1245 3.21ZM37.1245 1.536L36.9124 1.32387V1.32387L37.1245 1.536ZM38.7985 1.536L38.581 1.74262L38.5863 1.7482L38.5919 1.7535L38.7985 1.536ZM38.7985 3.21L39.0106 3.42213L38.7985 3.21ZM37.9705 14.7C37.7765 14.7 37.6294 14.6409 37.5092 14.5287L37.0998 14.9673C37.3396 15.1911 37.6365 15.3 37.9705 15.3V14.7ZM37.5238 14.5433C37.4116 14.4231 37.3525 14.276 37.3525 14.082H36.7525C36.7525 14.416 36.8614 14.7129 37.0852 14.9527L37.5238 14.5433ZM37.3525 14.082V6.072H36.7525V14.082H37.3525ZM37.3525 6.072C37.3525 5.86166 37.414 5.72074 37.5166 5.61813L37.0924 5.19387C36.859 5.42725 36.7525 5.73034 36.7525 6.072H37.3525ZM37.5092 5.62532C37.6294 5.51312 37.7765 5.454 37.9705 5.454V4.854C37.6365 4.854 37.3396 4.96288 37.0998 5.18668L37.5092 5.62532ZM37.9705 5.454C38.1808 5.454 38.3218 5.51552 38.4244 5.61813L38.8486 5.19387C38.6152 4.96048 38.3122 4.854 37.9705 4.854V5.454ZM38.4244 5.61813C38.527 5.72074 38.5885 5.86166 38.5885 6.072H39.1885C39.1885 5.73034 39.082 5.42725 38.8486 5.19387L38.4244 5.61813ZM38.5885 6.072V14.082H39.1885V6.072H38.5885ZM38.5885 14.082C38.5885 14.276 38.5294 14.4231 38.4172 14.5433L38.8558 14.9527C39.0796 14.7129 39.1885 14.416 39.1885 14.082H38.5885ZM38.4244 14.5359C38.3218 14.6385 38.1808 14.7 37.9705 14.7V15.3C38.3122 15.3 38.6152 15.1935 38.8486 14.9601L38.4244 14.5359ZM37.9705 3.252C37.7252 3.252 37.5167 3.16881 37.3311 2.9925L36.9179 3.4275C37.2123 3.70719 37.5678 3.852 37.9705 3.852V3.252ZM37.342 3.00337C37.1657 2.81778 37.0825 2.60926 37.0825 2.364H36.4825C36.4825 2.76674 36.6273 3.12222 36.907 3.41662L37.342 3.00337ZM37.0825 2.364C37.0825 2.11913 37.1652 1.91956 37.3366 1.74813L36.9124 1.32387C36.6278 1.60843 36.4825 1.96087 36.4825 2.364H37.0825ZM37.3366 1.74813C37.5233 1.56141 37.7302 1.476 37.9705 1.476V0.876C37.5628 0.876 37.2057 1.03059 36.9124 1.32387L37.3366 1.74813ZM37.9705 1.476C38.2103 1.476 38.4082 1.56078 38.581 1.74262L39.016 1.32937C38.7328 1.03122 38.3787 0.876 37.9705 0.876V1.476ZM38.5919 1.7535C38.7737 1.92625 38.8585 2.12423 38.8585 2.364H39.4585C39.4585 1.95577 39.3033 1.60175 39.0051 1.3185L38.5919 1.7535ZM38.8585 2.364C38.8585 2.60432 38.7731 2.81115 38.5864 2.99787L39.0106 3.42213C39.3039 3.12885 39.4585 2.77168 39.4585 2.364H38.8585ZM38.5864 2.99787C38.4149 3.1693 38.2154 3.252 37.9705 3.252V3.852C38.3736 3.852 38.7261 3.7067 39.0106 3.42213L38.5864 2.99787ZM43.9961 14.442L43.849 14.7035L43.8539 14.7061L43.9961 14.442ZM42.1781 12.678L41.9176 12.8269L41.9205 12.8317L42.1781 12.678ZM42.1421 7.494L41.8799 7.3483L41.8791 7.34975L42.1421 7.494ZM43.8701 5.73L44.0195 5.99023L44.0226 5.98836L43.8701 5.73ZM48.8021 5.712L48.6431 5.96642L48.6464 5.96844L48.8021 5.712ZM50.3321 7.422L50.0611 7.55083L50.0638 7.55616L50.3321 7.422ZM50.6381 10.5L50.8418 10.7206L50.8503 10.7121L50.6381 10.5ZM43.2041 10.716V10.416H42.8525L42.9079 10.7632L43.2041 10.716ZM44.3381 12.75L44.1443 12.9791L44.1491 12.983L44.3381 12.75ZM47.7941 13.326L47.8917 13.6098L47.8967 13.6079L47.7941 13.326ZM48.7481 12.84L48.5707 12.5981L48.5681 12.6L48.7481 12.84ZM49.3241 12.642V12.942H49.3325L49.3408 12.9415L49.3241 12.642ZM49.8821 12.822L50.0807 12.597L50.0759 12.593L49.8821 12.822ZM50.2061 13.416L50.5057 13.3994L50.2061 13.416ZM49.9181 13.974L49.7359 13.7357L49.7316 13.7391L49.9181 13.974ZM48.3881 14.766L48.2933 14.4814L48.2916 14.482L48.3881 14.766ZM43.2221 9.276L42.9271 9.22154L42.8617 9.576H43.2221V9.276ZM49.2161 9.276V9.576H49.5613L49.5132 9.23422L49.2161 9.276ZM48.3341 7.386L48.1169 7.59291L48.1194 7.5955L48.3341 7.386ZM46.6601 14.772C45.7075 14.772 44.8695 14.5715 44.1384 14.1779L43.8539 14.7061C44.6828 15.1525 45.6208 15.372 46.6601 15.372V14.772ZM44.1432 14.1805C43.42 13.7737 42.8525 13.2225 42.4358 12.5243L41.9205 12.8317C42.3918 13.6215 43.0363 14.2463 43.8491 14.7035L44.1432 14.1805ZM42.4386 12.5292C42.0354 11.8236 41.8301 11.012 41.8301 10.086H41.2301C41.2301 11.104 41.4568 12.0204 41.9177 12.8268L42.4386 12.5292ZM41.8301 10.086C41.8301 9.14432 42.0251 8.33143 42.4052 7.63825L41.8791 7.34975C41.4432 8.14457 41.2301 9.05968 41.2301 10.086H41.8301ZM42.4044 7.63969C42.7986 6.93019 43.336 6.38233 44.0194 5.99021L43.7208 5.46979C42.9403 5.91767 42.3257 6.54581 41.8799 7.34831L42.4044 7.63969ZM44.0226 5.98836C44.7033 5.58667 45.4894 5.382 46.3901 5.382V4.782C45.3948 4.782 44.501 5.00933 43.7177 5.47164L44.0226 5.98836ZM46.3901 5.382C47.2802 5.382 48.0269 5.58123 48.6431 5.9664L48.9611 5.4576C48.2334 5.00277 47.372 4.782 46.3901 4.782V5.382ZM48.6464 5.96844C49.2668 6.34507 49.7375 6.86995 50.0612 7.55081L50.6031 7.29319C50.2308 6.51005 49.6815 5.89493 48.9578 5.45556L48.6464 5.96844ZM50.0638 7.55616C50.3996 8.22772 50.5721 9.01434 50.5721 9.924H51.1721C51.1721 8.93766 50.9847 8.05628 50.6005 7.28784L50.0638 7.55616ZM50.5721 9.924C50.5721 10.0754 50.5237 10.1902 50.426 10.2879L50.8503 10.7121C51.0646 10.4978 51.1721 10.2286 51.1721 9.924H50.5721ZM50.4347 10.2796C50.3414 10.3656 50.2193 10.416 50.0441 10.416V11.016C50.349 11.016 50.6229 10.9224 50.8416 10.7204L50.4347 10.2796ZM50.0441 10.416H43.2041V11.016H50.0441V10.416ZM42.9079 10.7632C43.0509 11.6601 43.464 12.4033 44.1444 12.979L44.5319 12.521C43.9643 12.0407 43.6214 11.4279 43.5004 10.6688L42.9079 10.7632ZM44.1491 12.983C44.8447 13.5473 45.6876 13.824 46.6601 13.824V13.224C45.8087 13.224 45.1036 12.9847 44.5272 12.517L44.1491 12.983ZM46.6601 13.824C47.0682 13.824 47.4791 13.7515 47.8917 13.6097L47.6966 13.0423C47.3411 13.1645 46.9961 13.224 46.6601 13.224V13.824ZM47.8967 13.6079C48.3101 13.4576 48.6571 13.2833 48.9281 13.08L48.5681 12.6C48.3592 12.7567 48.0702 12.9064 47.6916 13.0441L47.8967 13.6079ZM48.9255 13.0819C49.0592 12.9839 49.19 12.942 49.3241 12.942V12.342C49.0503 12.342 48.7971 12.4321 48.5707 12.5981L48.9255 13.0819ZM49.3408 12.9415C49.4851 12.9335 49.5946 12.9717 49.6884 13.051L50.0759 12.593C49.8577 12.4083 49.5951 12.3265 49.3075 12.3425L49.3408 12.9415ZM49.6837 13.047C49.8438 13.1883 49.9001 13.3163 49.9066 13.4326L50.5057 13.3994C50.4881 13.0837 50.3284 12.8157 50.0806 12.597L49.6837 13.047ZM49.9066 13.4326C49.912 13.5299 49.878 13.6271 49.7359 13.7357L50.1004 14.2123C50.3663 14.0089 50.5243 13.7341 50.5057 13.3994L49.9066 13.4326ZM49.7316 13.7391C49.3567 14.0368 48.8797 14.2859 48.2933 14.4814L48.483 15.0506C49.1206 14.8381 49.6636 14.5592 50.1047 14.2089L49.7316 13.7391ZM48.2916 14.482C47.7181 14.6769 47.1748 14.772 46.6601 14.772V15.372C47.2494 15.372 47.8581 15.2631 48.4847 15.05L48.2916 14.482ZM46.3901 6.33C45.4443 6.33 44.6527 6.59355 44.0461 7.14624L44.4502 7.58976C44.9236 7.15845 45.5599 6.93 46.3901 6.93V6.33ZM44.0461 7.14624C43.4534 7.68621 43.0819 8.38298 42.9271 9.22154L43.5172 9.33046C43.6503 8.60902 43.9628 8.03379 44.4502 7.58976L44.0461 7.14624ZM43.2221 9.576H49.2161V8.976H43.2221V9.576ZM49.5132 9.23422C49.3975 8.41146 49.0791 7.71999 48.5489 7.1765L48.1194 7.5955C48.5492 8.03601 48.8188 8.60454 48.9191 9.31778L49.5132 9.23422ZM48.5514 7.1791C48.005 6.60536 47.2729 6.33 46.3901 6.33V6.93C47.1394 6.93 47.7033 7.15864 48.1169 7.5929L48.5514 7.1791ZM54.3203 14.838L54.1374 15.0758L54.1474 15.0835L54.158 15.0904L54.3203 14.838ZM53.9963 14.406L53.7116 14.5009L53.7137 14.5069L53.9963 14.406ZM51.3323 6.414L51.0418 6.48896L51.0444 6.49902L51.0477 6.50887L51.3323 6.414ZM51.3323 5.514L51.0586 5.39085L51.0558 5.39758L51.3323 5.514ZM52.5743 5.352L52.3715 5.57315L52.3811 5.58189L52.3914 5.58979L52.5743 5.352ZM52.9523 5.982L52.6665 6.07343L52.6666 6.07355L52.9523 5.982ZM54.8963 12.048L54.6106 12.1396L54.9078 13.0671L55.184 12.1331L54.8963 12.048ZM56.7323 5.838L57.02 5.92306L57.0201 5.92265L56.7323 5.838ZM57.0383 5.352L57.2303 5.58247L57.2358 5.57793L57.241 5.57315L57.0383 5.352ZM58.2083 5.352L58.0056 5.57315L58.0151 5.58189L58.0254 5.58979L58.2083 5.352ZM58.5143 5.838L58.2222 5.90672L58.2236 5.91231L58.5143 5.838ZM60.1343 12.174L59.8436 12.2483L60.1021 13.2594L60.42 12.2654L60.1343 12.174ZM62.1143 5.982L62.4 6.07338L62.4013 6.06935L62.1143 5.982ZM63.7343 5.514L63.4659 5.64819L63.4688 5.65372L63.7343 5.514ZM63.7163 6.414L63.4335 6.31366L63.4317 6.31913L63.7163 6.414ZM61.0523 14.406L60.7674 14.311L60.7638 14.3236L61.0523 14.406ZM60.7463 14.838L60.917 15.0847L60.9232 15.0804L60.9292 15.0758L60.7463 14.838ZM59.6663 14.838L59.4919 15.0821L59.4979 15.0864L59.504 15.0904L59.6663 14.838ZM59.3423 14.406L59.0526 14.4842L59.0538 14.4884L59.3423 14.406ZM57.5783 7.872L57.8679 7.79381L57.5855 6.74763L57.2897 7.79011L57.5783 7.872ZM55.7243 14.406L56.0127 14.4884L56.0129 14.4879L55.7243 14.406ZM55.4003 14.838L55.571 15.0847L55.5746 15.0821L55.4003 14.838ZM54.8603 14.7C54.7282 14.7 54.6042 14.6639 54.4825 14.5856L54.158 15.0904C54.3724 15.2281 54.6084 15.3 54.8603 15.3V14.7ZM54.5032 14.6002C54.3879 14.5116 54.3174 14.4133 54.2788 14.3051L53.7137 14.5069C53.7951 14.7347 53.9406 14.9244 54.1374 15.0758L54.5032 14.6002ZM54.2809 14.3111L51.6169 6.31913L51.0477 6.50887L53.7117 14.5009L54.2809 14.3111ZM51.6227 6.33904C51.5346 5.99761 51.5489 5.77257 51.6088 5.63042L51.0558 5.39758C50.9236 5.71143 50.9379 6.08639 51.0418 6.48896L51.6227 6.33904ZM51.6058 5.63711C51.6491 5.5409 51.7408 5.454 52.0163 5.454V4.854C51.5957 4.854 51.2314 5.0071 51.0587 5.39089L51.6058 5.63711ZM52.0163 5.454C52.1826 5.454 52.292 5.50023 52.3715 5.57315L52.777 5.13085C52.5685 4.93977 52.306 4.854 52.0163 4.854V5.454ZM52.3914 5.58979C52.4779 5.65633 52.5789 5.79952 52.6665 6.07343L53.238 5.89057C53.1336 5.56448 52.9827 5.28767 52.7572 5.11421L52.3914 5.58979ZM52.6666 6.07355L54.6106 12.1396L55.182 11.9564L53.238 5.89044L52.6666 6.07355ZM55.184 12.1331L57.02 5.92306L56.4446 5.75294L54.6086 11.9629L55.184 12.1331ZM57.0201 5.92265C57.0656 5.76775 57.1379 5.65946 57.2303 5.58247L56.8462 5.12153C56.6506 5.28454 56.5189 5.50025 56.4445 5.75335L57.0201 5.92265ZM57.241 5.57315C57.3151 5.50523 57.4329 5.454 57.6323 5.454V4.854C57.3277 4.854 57.0495 4.93477 56.8355 5.13085L57.241 5.57315ZM57.6323 5.454C57.8152 5.454 57.9288 5.50283 58.0056 5.57315L58.411 5.13085C58.1997 4.93717 57.9293 4.854 57.6323 4.854V5.454ZM58.0254 5.58979C58.1229 5.66482 58.189 5.76526 58.2222 5.90671L58.8063 5.76929C58.7436 5.50274 58.6056 5.27918 58.3912 5.11421L58.0254 5.58979ZM58.2236 5.91231L59.8436 12.2483L60.4249 12.0997L58.8049 5.76369L58.2236 5.91231ZM60.42 12.2654L62.4 6.07337L61.8285 5.89063L59.8485 12.0826L60.42 12.2654ZM62.4013 6.06935C62.4751 5.8268 62.5716 5.6754 62.673 5.5857C62.7688 5.50096 62.888 5.454 63.0503 5.454V4.854C62.7565 4.854 62.4917 4.94504 62.2755 5.1363C62.0649 5.3226 61.9214 5.58519 61.8273 5.89465L62.4013 6.06935ZM63.0503 5.454C63.3069 5.454 63.4105 5.53721 63.4659 5.64816L64.0026 5.37984C63.8181 5.01079 63.4656 4.854 63.0503 4.854V5.454ZM63.4688 5.65372C63.5331 5.77593 63.5523 5.97894 63.4335 6.31368L63.999 6.51432C64.1442 6.10506 64.1754 5.70807 63.9997 5.37428L63.4688 5.65372ZM63.4317 6.31913L60.7677 14.3111L61.3369 14.5009L64.0009 6.50887L63.4317 6.31913ZM60.7638 14.3236C60.7357 14.4221 60.6752 14.5142 60.5634 14.6002L60.9292 15.0758C61.1293 14.9218 61.2729 14.7259 61.3407 14.4884L60.7638 14.3236ZM60.5755 14.5913C60.4735 14.662 60.3541 14.7 60.2063 14.7V15.3C60.4665 15.3 60.707 15.23 60.917 15.0847L60.5755 14.5913ZM60.2063 14.7C60.0742 14.7 59.9502 14.6639 59.8285 14.5856L59.504 15.0904C59.7184 15.2281 59.9544 15.3 60.2063 15.3V14.7ZM59.8406 14.5939C59.7174 14.5059 59.6568 14.415 59.6307 14.3236L59.0538 14.4884C59.1237 14.733 59.2791 14.9301 59.4919 15.0821L59.8406 14.5939ZM59.6319 14.3278L57.8679 7.79381L57.2886 7.95019L59.0526 14.4842L59.6319 14.3278ZM57.2897 7.79011L55.4357 14.3241L56.0129 14.4879L57.8669 7.95389L57.2897 7.79011ZM55.4358 14.3236C55.4097 14.415 55.3491 14.5059 55.2259 14.5939L55.5746 15.0821C55.7874 14.9301 55.9428 14.733 56.0127 14.4884L55.4358 14.3236ZM55.2295 14.5913C55.1275 14.662 55.0081 14.7 54.8603 14.7V15.3C55.1205 15.3 55.361 15.23 55.571 15.0847L55.2295 14.5913ZM9.364 34.64L9.2425 34.9143L9.24724 34.9163L9.364 34.64ZM7.15 33.11L6.93197 33.3161L6.93589 33.3201L7.15 33.11ZM5.674 30.806L5.39518 30.9168L5.39652 30.92L5.674 30.806ZM5.674 25.154L5.39651 25.04L5.39572 25.0419L5.674 25.154ZM7.15 22.868L6.93398 22.6598L6.9339 22.6599L7.15 22.868ZM9.364 21.32L9.24252 21.0457L9.364 21.32ZM14.476 21.122L14.3735 21.4039L14.3751 21.4045L14.476 21.122ZM16.492 22.31L16.6841 22.0795L16.6824 22.0782L16.492 22.31ZM16.6 23.624L16.3957 23.404L16.3879 23.4119L16.6 23.624ZM16.006 23.876L15.991 23.5764L15.9902 23.5764L16.006 23.876ZM15.358 23.642L15.1617 23.869L15.1673 23.8736L15.358 23.642ZM13.972 22.76L13.8521 23.035L13.8547 23.0361L13.972 22.76ZM8.446 24.074L8.22874 23.8671L8.22616 23.8699L8.446 24.074ZM7.348 25.838L7.62655 25.9494L7.62723 25.9477L7.348 25.838ZM7.348 30.122L7.06877 30.2317L7.06946 30.2334L7.348 30.122ZM8.446 31.868L8.22614 32.0722L8.22876 32.0749L8.446 31.868ZM10.102 33.056L9.97627 33.3284L9.98065 33.3304L10.102 33.056ZM13.612 33.236L13.7047 33.5213L13.612 33.236ZM14.998 32.57L15.1613 32.8217L15.298 32.733V32.57H14.998ZM14.998 29.366H15.298V29.066H14.998V29.366ZM11.848 29.132L11.6515 29.3587L11.6515 29.3587L11.848 29.132ZM11.848 27.944L11.6515 27.7173L11.848 27.944ZM16.546 27.98L16.3266 28.1848L16.3339 28.1921L16.546 27.98ZM16.726 33.308L16.4475 33.1966L16.4442 33.2048L16.4414 33.2131L16.726 33.308ZM16.51 33.614L16.7017 33.845L16.7093 33.8382L16.51 33.614ZM14.44 34.802L14.5363 35.0862L14.5403 35.0847L14.44 34.802ZM12.1 34.88C11.166 34.88 10.294 34.7073 9.48077 34.3637L9.24724 34.9163C10.1381 35.2927 11.09 35.48 12.1 35.48V34.88ZM9.48548 34.3657C8.67971 34.0089 7.97324 33.5205 7.36411 32.8999L6.93589 33.3201C7.59876 33.9955 8.36829 34.5271 9.24252 34.9143L9.48548 34.3657ZM7.36799 32.9039C6.77038 32.2718 6.29808 31.5354 5.95148 30.692L5.39652 30.92C5.76992 31.8286 6.28162 32.6282 6.93201 33.3161L7.36799 32.9039ZM5.95281 30.6952C5.61992 29.8573 5.452 28.9472 5.452 27.962H4.852C4.852 29.0168 5.03208 30.0027 5.39519 30.9168L5.95281 30.6952ZM5.452 27.962C5.452 26.9892 5.61977 26.0916 5.95228 25.2661L5.39572 25.0419C5.03223 25.9444 4.852 26.9188 4.852 27.962H5.452ZM5.95148 25.268C6.29789 24.4251 6.76966 23.6955 7.3661 23.0761L6.9339 22.6599C6.28234 23.3365 5.77011 24.1309 5.39652 25.04L5.95148 25.268ZM7.36602 23.0762C7.97502 22.4442 8.68089 21.9506 9.48548 21.5943L9.24252 21.0457C8.36711 21.4334 7.59698 21.9718 6.93398 22.6598L7.36602 23.0762ZM9.48548 21.5943C10.2846 21.2404 11.1548 21.062 12.1 21.062V20.462C11.0772 20.462 10.1234 20.6556 9.24252 21.0457L9.48548 21.5943ZM12.1 21.062C12.9995 21.062 13.7549 21.179 14.3735 21.4039L14.5785 20.8401C13.8771 20.585 13.0485 20.462 12.1 20.462V21.062ZM14.3751 21.4045C15.0083 21.6307 15.6506 22.0071 16.3016 22.5418L16.6824 22.0782C15.9894 21.5089 15.2877 21.0933 14.5769 20.8395L14.3751 21.4045ZM16.2999 22.5405C16.4271 22.6465 16.4843 22.7254 16.5059 22.7738L17.0541 22.5302C16.9797 22.3626 16.8449 22.2135 16.6841 22.0795L16.2999 22.5405ZM16.5059 22.7738C16.5323 22.8333 16.552 22.9212 16.552 23.048H17.152C17.152 22.8628 17.1237 22.6867 17.0541 22.5302L16.5059 22.7738ZM16.552 23.048C16.552 23.1921 16.5031 23.3046 16.3959 23.4042L16.8041 23.8438C17.0329 23.6314 17.152 23.3599 17.152 23.048H16.552ZM16.3879 23.4119C16.2893 23.5104 16.1639 23.5677 15.991 23.5764L16.021 24.1756C16.3281 24.1603 16.5987 24.0496 16.8121 23.8361L16.3879 23.4119ZM15.9902 23.5764C15.8489 23.5839 15.7045 23.5388 15.5487 23.4104L15.1673 23.8736C15.4195 24.0812 15.7071 24.1921 16.0218 24.1756L15.9902 23.5764ZM15.5542 23.4151C15.0896 23.0132 14.6014 22.7015 14.0893 22.4839L13.8547 23.0361C14.3026 23.2265 14.7384 23.5028 15.1618 23.8689L15.5542 23.4151ZM14.0919 22.485C13.5715 22.2581 12.9016 22.154 12.1 22.154V22.754C12.8584 22.754 13.4365 22.8539 13.8521 23.035L14.0919 22.485ZM12.1 22.154C11.3499 22.154 10.6409 22.3069 9.97628 22.6136L10.2277 23.1584C10.8111 22.8891 11.4341 22.754 12.1 22.754V22.154ZM9.97628 22.6136C9.31747 22.9177 8.73452 23.3361 8.22876 23.8671L8.66324 24.2809C9.11748 23.8039 9.63853 23.4303 10.2277 23.1584L9.97628 22.6136ZM8.22616 23.8699C7.73138 24.4027 7.3458 25.0231 7.06877 25.7283L7.62723 25.9477C7.8782 25.3089 8.22462 24.7533 8.66584 24.2781L8.22616 23.8699ZM7.06946 25.7266C6.7904 26.4242 6.652 27.1703 6.652 27.962H7.252C7.252 27.2417 7.3776 26.5718 7.62654 25.9494L7.06946 25.7266ZM6.652 27.962C6.652 28.7651 6.79019 29.5226 7.06877 30.2317L7.62723 30.0123C7.37781 29.3774 7.252 28.6949 7.252 27.962H6.652ZM7.06946 30.2334C7.34669 30.9265 7.73222 31.5402 8.22616 32.0721L8.66584 31.6639C8.22378 31.1878 7.87731 30.6375 7.62654 30.0106L7.06946 30.2334ZM8.22876 32.0749C8.73452 32.6059 9.31747 33.0243 9.97628 33.3284L10.2277 32.7836C9.63853 32.5117 9.11748 32.1381 8.66324 31.6611L8.22876 32.0749ZM9.98065 33.3304C10.6443 33.6239 11.3518 33.77 12.1 33.77V33.17C11.4322 33.17 10.8077 33.0401 10.2234 32.7816L9.98065 33.3304ZM12.1 33.77C12.658 33.77 13.1934 33.6875 13.7047 33.5213L13.5193 32.9507C13.0706 33.0965 12.598 33.17 12.1 33.17V33.77ZM13.7047 33.5213C14.2108 33.3568 14.6964 33.1232 15.1613 32.8217L14.8347 32.3183C14.4116 32.5928 13.9732 32.8032 13.5193 32.9507L13.7047 33.5213ZM15.298 32.57V29.366H14.698V32.57H15.298ZM14.998 29.066H12.514V29.666H14.998V29.066ZM12.514 29.066C12.3138 29.066 12.1639 29.0088 12.0445 28.9053L11.6515 29.3587C11.8921 29.5672 12.1862 29.666 12.514 29.666V29.066ZM12.0445 28.9053C11.9308 28.8068 11.878 28.6918 11.878 28.538H11.278C11.278 28.8642 11.4052 29.1452 11.6515 29.3587L12.0445 28.9053ZM11.878 28.538C11.878 28.3842 11.9308 28.2692 12.0445 28.1707L11.6515 27.7173C11.4052 27.9308 11.278 28.2118 11.278 28.538H11.878ZM12.0445 28.1707C12.1639 28.0672 12.3138 28.01 12.514 28.01V27.41C12.1862 27.41 11.8921 27.5088 11.6515 27.7173L12.0445 28.1707ZM12.514 28.01H15.88V27.41H12.514V28.01ZM15.88 28.01C16.084 28.01 16.2226 28.0732 16.3267 28.1847L16.7653 27.7753C16.5334 27.5268 16.228 27.41 15.88 27.41V28.01ZM16.3339 28.1921C16.4365 28.2947 16.498 28.4357 16.498 28.646H17.098C17.098 28.3043 16.9915 28.0013 16.7581 27.7679L16.3339 28.1921ZM16.498 28.646V32.948H17.098V28.646H16.498ZM16.498 32.948C16.498 33.027 16.4824 33.1093 16.4475 33.1966L17.0045 33.4194C17.0656 33.2667 17.098 33.109 17.098 32.948H16.498ZM16.4414 33.2131C16.4259 33.2596 16.3898 33.3194 16.3107 33.3898L16.7093 33.8382C16.8462 33.7166 16.9541 33.5724 17.0106 33.4029L16.4414 33.2131ZM16.3184 33.3832C15.7082 33.8897 15.0489 34.2676 14.3397 34.5193L14.5403 35.0847C15.3191 34.8084 16.0398 34.3943 16.7016 33.8448L16.3184 33.3832ZM14.3438 34.5179C13.632 34.759 12.8846 34.88 12.1 34.88V35.48C12.9474 35.48 13.76 35.349 14.5362 35.0861L14.3438 34.5179ZM20.3675 34.424L20.2061 34.6769L20.2093 34.6789L20.3675 34.424ZM18.7115 32.642L18.4457 32.7812L18.4484 32.7863L18.7115 32.642ZM18.7655 27.53L18.5068 27.3781L18.505 27.3812L18.7655 27.53ZM20.5475 25.748L20.6981 26.0074L20.6994 26.0067L20.5475 25.748ZM25.6055 25.748L25.4517 26.0056L25.4548 26.0074L25.6055 25.748ZM27.3695 27.53L27.109 27.6789L27.1108 27.6819L27.3695 27.53ZM27.7655 34.766L27.9776 34.9781L27.7655 34.766ZM26.4515 34.766L26.2322 34.9707L26.2392 34.9783L26.2468 34.9853L26.4515 34.766ZM26.1995 33.434H26.4995V32.6054L25.969 33.2419L26.1995 33.434ZM24.6695 34.64L24.8014 34.9094L24.8036 34.9083L24.6695 34.64ZM24.7235 33.02L24.8779 33.2773L24.8825 33.2744L24.7235 33.02ZM25.8575 31.814L26.1206 31.9581L26.122 31.9555L25.8575 31.814ZM25.8575 28.358L25.5929 28.4995L25.5944 28.5021L25.8575 28.358ZM24.7235 27.152L24.5645 27.4064L24.5691 27.4092L24.7235 27.152ZM21.4475 27.152L21.6018 27.4093L21.6037 27.4081L21.4475 27.152ZM20.2955 28.358L20.0335 28.2118L20.0324 28.2139L20.2955 28.358ZM20.2955 31.814L20.0308 31.9556L20.035 31.9628L20.2955 31.814ZM21.4475 33.02L21.2884 33.2745L21.2959 33.2789L21.4475 33.02ZM22.7255 34.772C21.9014 34.772 21.1709 34.5696 20.5257 34.1691L20.2093 34.6789C20.9561 35.1424 21.7976 35.372 22.7255 35.372V34.772ZM20.5288 34.1711C19.8765 33.755 19.359 33.1988 18.9745 32.4977L18.4484 32.7863C18.88 33.5732 19.4664 34.205 20.2061 34.6769L20.5288 34.1711ZM18.9772 32.5028C18.6061 31.7943 18.4175 30.991 18.4175 30.086H17.8175C17.8175 31.077 18.0248 31.9777 18.4457 32.7812L18.9772 32.5028ZM18.4175 30.086C18.4175 29.1854 18.6221 28.3855 19.026 27.6788L18.505 27.3812C18.0448 28.1865 17.8175 29.0906 17.8175 30.086H18.4175ZM19.0242 27.6819C19.4425 26.9696 19.9997 26.413 20.6981 26.0074L20.3968 25.4886C19.6073 25.947 18.9764 26.5784 18.5068 27.3781L19.0242 27.6819ZM20.6994 26.0067C21.4062 25.5916 22.1992 25.382 23.0855 25.382V24.782C22.0998 24.782 21.2007 25.0164 20.3956 25.4893L20.6994 26.0067ZM23.0855 25.382C23.9719 25.382 24.7579 25.5916 25.4517 26.0056L25.7592 25.4904C24.965 25.0164 24.0711 24.782 23.0855 24.782V25.382ZM25.4548 26.0074C26.1526 26.4126 26.7029 26.9682 27.109 27.6788L27.63 27.3812C27.1721 26.5798 26.5464 25.9474 25.7561 25.4886L25.4548 26.0074ZM27.1108 27.6819C27.5256 28.3881 27.7355 29.1869 27.7355 30.086H28.3355C28.3355 29.0891 28.1014 28.1839 27.6282 27.3781L27.1108 27.6819ZM27.7355 30.086V34.1H28.3355V30.086H27.7355ZM27.7355 34.1C27.7355 34.2877 27.6748 34.4324 27.5534 34.5539L27.9776 34.9781C28.2162 34.7396 28.3355 34.4403 28.3355 34.1H27.7355ZM27.5534 34.5539C27.4481 34.6591 27.3116 34.718 27.1175 34.718V35.318C27.4514 35.318 27.7469 35.2089 27.9776 34.9781L27.5534 34.5539ZM27.1175 34.718C26.9235 34.718 26.7764 34.6589 26.6562 34.5467L26.2468 34.9853C26.4866 35.2091 26.7835 35.318 27.1175 35.318V34.718ZM26.6708 34.5613C26.5586 34.4411 26.4995 34.294 26.4995 34.1H25.8995C25.8995 34.434 26.0084 34.7309 26.2322 34.9707L26.6708 34.5613ZM26.4995 34.1V33.434H25.8995V34.1H26.4995ZM25.969 33.2419C25.5761 33.7134 25.0992 34.0898 24.5353 34.3717L24.8036 34.9083C25.4398 34.5902 25.9828 34.1626 26.43 33.6261L25.969 33.2419ZM24.5375 34.3706C23.9939 34.6369 23.3915 34.772 22.7255 34.772V35.372C23.4754 35.372 24.1691 35.2191 24.8014 34.9094L24.5375 34.3706ZM23.0855 33.752C23.7466 33.752 24.3469 33.5958 24.8778 33.2772L24.5691 32.7628C24.1401 33.0202 23.6483 33.152 23.0855 33.152V33.752ZM24.8825 33.2744C25.4068 32.9467 25.8203 32.5065 26.1206 31.9581L25.5944 31.6699C25.3427 32.1295 25.0002 32.4933 24.5645 32.7656L24.8825 33.2744ZM26.122 31.9555C26.4233 31.3923 26.5715 30.767 26.5715 30.086H25.9715C25.9715 30.677 25.8437 31.2037 25.5929 31.6725L26.122 31.9555ZM26.5715 30.086C26.5715 29.3942 26.4238 28.7675 26.1206 28.2139L25.5944 28.5021C25.8432 28.9565 25.9715 29.4818 25.9715 30.086H26.5715ZM26.122 28.2165C25.8216 27.6549 25.4065 27.212 24.8778 26.8948L24.5691 27.4092C25.0005 27.668 25.3413 28.0291 25.5929 28.4995L26.122 28.2165ZM24.8825 26.8976C24.3509 26.5654 23.749 26.402 23.0855 26.402V27.002C23.646 27.002 24.136 27.1386 24.5645 27.4064L24.8825 26.8976ZM23.0855 26.402C22.4328 26.402 21.8323 26.566 21.2913 26.8959L21.6037 27.4081C22.0466 27.138 22.5382 27.002 23.0855 27.002V26.402ZM21.2931 26.8948C20.7656 27.2112 20.3456 27.6527 20.0335 28.2118L20.5574 28.5042C20.8214 28.0313 21.1693 27.6688 21.6018 27.4092L21.2931 26.8948ZM20.0324 28.2139C19.7292 28.7675 19.5815 29.3942 19.5815 30.086H20.1815C20.1815 29.4818 20.3098 28.9565 20.5586 28.5021L20.0324 28.2139ZM19.5815 30.086C19.5815 30.767 19.7297 31.3923 20.0309 31.9555L20.56 31.6725C20.3093 31.2037 20.1815 30.677 20.1815 30.086H19.5815ZM20.035 31.9628C20.3469 32.5087 20.7654 32.9474 21.2885 33.2744L21.6065 32.7656C21.1696 32.4926 20.82 32.1273 20.556 31.6652L20.035 31.9628ZM21.2959 33.2789C21.8364 33.5952 22.4351 33.752 23.0855 33.752V33.152C22.5358 33.152 22.0426 33.0208 21.599 32.7611L21.2959 33.2789ZM32.46 34.55L32.2964 34.8016L32.301 34.8044L32.46 34.55ZM31.326 33.29L31.0601 33.429L31.326 33.29ZM30.912 27.062H31.212V26.762H30.912V27.062ZM29.472 26.846L29.2685 27.0664L29.472 26.846ZM29.472 25.73L29.2685 25.5096L29.472 25.73ZM30.912 25.514V25.814H31.212V25.514H30.912ZM32.46 22.274L32.6721 22.0619L32.46 22.274ZM32.712 25.514H32.412V25.814H32.712V25.514ZM34.854 25.73L35.0575 25.5096H35.0575L34.854 25.73ZM34.854 26.846L35.0575 27.0664H35.0575L34.854 26.846ZM32.712 27.062V26.762H32.412V27.062H32.712ZM33.108 32.714L33.3405 32.5245L33.108 32.714ZM35.232 33.452L35.004 33.6474L35.0121 33.6561L35.232 33.452ZM35.16 34.748L34.9692 34.5163L34.9624 34.5222L35.16 34.748ZM34.08 34.7C33.5327 34.7 33.0484 34.564 32.619 34.2956L32.301 34.8044C32.8316 35.136 33.4273 35.3 34.08 35.3V34.7ZM32.6235 34.2985C32.1885 34.0157 31.845 33.6353 31.5918 33.151L31.0601 33.429C31.359 34.0007 31.7714 34.4603 32.2965 34.8015L32.6235 34.2985ZM31.5918 33.151C31.3406 32.6704 31.212 32.1249 31.212 31.508H30.612C30.612 32.2111 30.7593 32.8536 31.0601 33.429L31.5918 33.151ZM31.212 31.508V27.062H30.612V31.508H31.212ZM30.912 26.762H30.084V27.362H30.912V26.762ZM30.084 26.762C29.8924 26.762 29.7659 26.7091 29.6755 26.6256L29.2685 27.0664C29.49 27.2709 29.7715 27.362 30.084 27.362V26.762ZM29.6755 26.6256C29.5822 26.5395 29.538 26.4399 29.538 26.306H28.938C28.938 26.6041 29.0498 26.8645 29.2685 27.0664L29.6755 26.6256ZM29.538 26.306C29.538 26.1377 29.5893 26.03 29.6755 25.9504L29.2685 25.5096C29.0426 25.718 28.938 25.9943 28.938 26.306H29.538ZM29.6755 25.9504C29.7659 25.8669 29.8924 25.814 30.084 25.814V25.214C29.7715 25.214 29.49 25.3051 29.2685 25.5096L29.6755 25.9504ZM30.084 25.814H30.912V25.214H30.084V25.814ZM31.212 25.514V22.922H30.612V25.514H31.212ZM31.212 22.922C31.212 22.7279 31.2709 22.5914 31.3761 22.4861L30.9518 22.0619C30.7211 22.2926 30.612 22.5881 30.612 22.922H31.212ZM31.3761 22.4861C31.4813 22.3809 31.6178 22.322 31.812 22.322V21.722C31.4781 21.722 31.1826 21.8311 30.9518 22.0619L31.3761 22.4861ZM31.812 22.322C32.0061 22.322 32.1426 22.3809 32.2478 22.4861L32.6721 22.0619C32.4413 21.8311 32.1458 21.722 31.812 21.722V22.322ZM32.2478 22.4861C32.3531 22.5914 32.412 22.7279 32.412 22.922H33.012C33.012 22.5881 32.9029 22.2926 32.6721 22.0619L32.2478 22.4861ZM32.412 22.922V25.514H33.012V22.922H32.412ZM32.712 25.814H34.242V25.214H32.712V25.814ZM34.242 25.814C34.4335 25.814 34.56 25.8669 34.6505 25.9504L35.0575 25.5096C34.8359 25.3051 34.5544 25.214 34.242 25.214V25.814ZM34.6505 25.9504C34.7366 26.03 34.788 26.1377 34.788 26.306H35.388C35.388 25.9943 35.2833 25.718 35.0575 25.5096L34.6505 25.9504ZM34.788 26.306C34.788 26.4399 34.7438 26.5395 34.6505 26.6256L35.0575 27.0664C35.2762 26.8645 35.388 26.6041 35.388 26.306H34.788ZM34.6505 26.6256C34.56 26.7091 34.4335 26.762 34.242 26.762V27.362C34.5544 27.362 34.8359 27.2709 35.0575 27.0664L34.6505 26.6256ZM34.242 26.762H32.712V27.362H34.242V26.762ZM32.412 27.062V31.508H33.012V27.062H32.412ZM32.412 31.508C32.412 32.0462 32.5614 32.5182 32.8754 32.9035L33.3405 32.5245C33.1265 32.2618 33.012 31.9298 33.012 31.508H32.412ZM32.8754 32.9035C33.1906 33.2904 33.5971 33.5 34.08 33.5V32.9C33.7949 32.9 33.5533 32.7856 33.3405 32.5245L32.8754 32.9035ZM34.08 33.5H34.692V32.9H34.08V33.5ZM34.692 33.5C34.818 33.5 34.9156 33.5439 35.0042 33.6472L35.4597 33.2568C35.2603 33.0241 34.998 32.9 34.692 32.9V33.5ZM35.0121 33.6561C35.1088 33.7602 35.166 33.8994 35.166 34.1H35.766C35.766 33.7726 35.6671 33.4798 35.4518 33.2479L35.0121 33.6561ZM35.166 34.1C35.166 34.2742 35.1041 34.4053 34.9693 34.5164L35.3507 34.9796C35.6238 34.7547 35.766 34.4538 35.766 34.1H35.166ZM34.9624 34.5222C34.8366 34.6323 34.6602 34.7 34.404 34.7V35.3C34.7717 35.3 35.0993 35.1997 35.3575 34.9738L34.9624 34.5222ZM34.404 34.7H34.08V35.3H34.404V34.7ZM39.3426 34.442L39.1919 34.7015L39.1951 34.7032L39.3426 34.442ZM37.5786 32.678L37.3163 32.8237L37.3191 32.8286L37.5786 32.678ZM37.5786 27.494L37.3181 27.3452L37.3173 27.3465L37.5786 27.494ZM39.3426 25.73L39.4901 25.9913L39.4932 25.9894L39.3426 25.73ZM44.4726 25.73L44.3219 25.9895L44.3251 25.9912L44.4726 25.73ZM46.2186 27.494L45.9563 27.6397L45.9591 27.6446L46.2186 27.494ZM46.2366 32.678L46.4978 32.8255L46.4988 32.8237L46.2366 32.678ZM44.4906 34.442L44.6381 34.7033L44.6412 34.7014L44.4906 34.442ZM43.5726 33.02L43.4182 32.7628H43.4182L43.5726 33.02ZM44.6886 31.832L44.4254 31.6879L44.4228 31.6928L44.6886 31.832ZM44.6886 28.34L44.4214 28.4767L44.4254 28.4841L44.6886 28.34ZM43.5726 27.134L43.4182 27.3912L43.4182 27.3912L43.5726 27.134ZM40.2606 27.134L40.4149 27.3912V27.3912L40.2606 27.134ZM39.1266 28.34L39.3897 28.4841L39.3911 28.4815L39.1266 28.34ZM39.1266 31.832L39.3897 31.6879L39.1266 31.832ZM40.2606 33.02L40.1062 33.2772L40.2606 33.02ZM41.9166 34.772C40.989 34.772 40.1832 34.572 39.4901 34.1808L39.1951 34.7032C39.99 35.152 40.9001 35.372 41.9166 35.372V34.772ZM39.4932 34.1826C38.7943 33.7768 38.2438 33.2263 37.838 32.5274L37.3191 32.8286C37.7773 33.6177 38.4028 34.2432 39.1919 34.7014L39.4932 34.1826ZM37.8408 32.5323C37.4485 31.8262 37.2486 31.0134 37.2486 30.086H36.6486C36.6486 31.1026 36.8686 32.0178 37.3163 32.8237L37.8408 32.5323ZM37.2486 30.086C37.2486 29.1457 37.4489 28.334 37.8398 27.6415L37.3173 27.3465C36.8683 28.142 36.6486 29.0583 36.6486 30.086H37.2486ZM37.8391 27.6428C38.2448 26.9329 38.7941 26.3841 39.4901 25.9912L39.1951 25.4688C38.403 25.9159 37.7764 26.5431 37.3181 27.3452L37.8391 27.6428ZM39.4932 25.9894C40.1858 25.5873 40.9905 25.382 41.9166 25.382V24.782C40.8987 24.782 39.9874 25.0087 39.1919 25.4706L39.4932 25.9894ZM41.9166 25.382C42.8299 25.382 43.6288 25.587 44.3219 25.9894L44.6232 25.4706C43.8283 25.009 42.9232 24.782 41.9166 24.782V25.382ZM44.3251 25.9912C45.0203 26.3837 45.5629 26.9314 45.9563 27.6397L46.4808 27.3483C46.0343 26.5446 45.4129 25.9163 44.6201 25.4688L44.3251 25.9912ZM45.9591 27.6446C46.3609 28.3366 46.5666 29.1472 46.5666 30.086H47.1666C47.1666 29.0568 46.9402 28.1394 46.478 27.3434L45.9591 27.6446ZM46.5666 30.086C46.5666 31.0134 46.3666 31.8262 45.9743 32.5323L46.4988 32.8237C46.9465 32.0178 47.1666 31.1026 47.1666 30.086H46.5666ZM45.9753 32.5305C45.5818 33.2277 45.0381 33.7772 44.3399 34.1826L44.6412 34.7014C45.4311 34.2428 46.0514 33.6163 46.4978 32.8255L45.9753 32.5305ZM44.3431 34.1808C43.65 34.572 42.8441 34.772 41.9166 34.772V35.372C42.933 35.372 43.8432 35.152 44.6381 34.7032L44.3431 34.1808ZM41.9166 33.752C42.5885 33.752 43.1951 33.5963 43.7269 33.2772L43.4182 32.7628C42.9901 33.0197 42.4926 33.152 41.9166 33.152V33.752ZM43.7269 33.2772C44.255 32.9604 44.6652 32.5232 44.9543 31.9712L44.4228 31.6928C44.184 32.1488 43.8501 32.5036 43.4182 32.7628L43.7269 33.2772ZM44.9517 31.9761C45.2553 31.4217 45.4026 30.7888 45.4026 30.086H44.8026C44.8026 30.7032 44.6739 31.2343 44.4254 31.6879L44.9517 31.9761ZM45.4026 30.086C45.4026 29.3832 45.2553 28.7503 44.9517 28.1959L44.4254 28.4841C44.6739 28.9377 44.8026 29.4688 44.8026 30.086H45.4026ZM44.9557 28.2034C44.667 27.6393 44.2568 27.1947 43.7269 26.8768L43.4182 27.3912C43.8484 27.6493 44.1821 28.0087 44.4215 28.4766L44.9557 28.2034ZM43.7269 26.8768C43.1951 26.5577 42.5885 26.402 41.9166 26.402V27.002C42.4926 27.002 42.9901 27.1343 43.4182 27.3912L43.7269 26.8768ZM41.9166 26.402C41.2446 26.402 40.6381 26.5577 40.1062 26.8768L40.4149 27.3912C40.8431 27.1343 41.3405 27.002 41.9166 27.002V26.402ZM40.1062 26.8768C39.5776 27.194 39.1624 27.6369 38.862 28.1985L39.3911 28.4815C39.6427 28.0111 39.9836 27.65 40.4149 27.3912L40.1062 26.8768ZM38.8634 28.1959C38.5599 28.7503 38.4126 29.3832 38.4126 30.086H39.0126C39.0126 29.4688 39.1413 28.9377 39.3897 28.4841L38.8634 28.1959ZM38.4126 30.086C38.4126 30.7888 38.5599 31.4217 38.8634 31.9761L39.3897 31.6879C39.1413 31.2343 39.0126 30.7032 39.0126 30.086H38.4126ZM38.8634 31.9761C39.1643 32.5255 39.5793 32.9611 40.1062 33.2772L40.4149 32.7628C39.9818 32.5029 39.6408 32.1465 39.3897 31.6879L38.8634 31.9761ZM40.1062 33.2772C40.6381 33.5963 41.2446 33.752 41.9166 33.752V33.152C41.3405 33.152 40.8431 33.0197 40.4149 32.7628L40.1062 33.2772ZM51.1291 26.396H50.8291V27.207L51.3568 26.5912L51.1291 26.396ZM52.4431 25.406L52.3189 25.1329L52.3165 25.134L52.4431 25.406ZM55.7551 25.406L55.5846 25.6532L55.5945 25.6594L55.7551 25.406ZM56.1691 26.234L55.8786 26.1587L55.8772 26.1645L56.1691 26.234ZM55.8091 26.738L55.9205 27.0165L55.9283 27.0134L55.9359 27.0099L55.8091 26.738ZM55.1791 26.774L55.1193 27.068L55.1202 27.0682L55.1791 26.774ZM51.6511 27.476L51.4389 27.2638L51.4354 27.2675L51.6511 27.476ZM50.2291 34.7C49.9753 34.7 49.8401 34.6368 49.7662 34.5629C49.6923 34.489 49.6291 34.3538 49.6291 34.1H49.0291C49.0291 34.4462 49.1158 34.761 49.3419 34.9871C49.568 35.2132 49.8828 35.3 50.2291 35.3V34.7ZM49.6291 34.1V26.054H49.0291V34.1H49.6291ZM49.6291 26.054C49.6291 25.8002 49.6923 25.665 49.7662 25.5911C49.8401 25.5172 49.9753 25.454 50.2291 25.454V24.854C49.8828 24.854 49.568 24.9408 49.3419 25.1669C49.1158 25.393 49.0291 25.7078 49.0291 26.054H49.6291ZM50.2291 25.454C50.4828 25.454 50.618 25.5172 50.6919 25.5911C50.7658 25.665 50.8291 25.8002 50.8291 26.054H51.4291C51.4291 25.7078 51.3423 25.393 51.1162 25.1669C50.8901 24.9408 50.5753 24.854 50.2291 24.854V25.454ZM50.8291 26.054V26.396H51.4291V26.054H50.8291ZM51.3568 26.5912C51.6881 26.2047 52.0913 25.9005 52.5696 25.678L52.3165 25.134C51.7628 25.3915 51.29 25.7473 50.9013 26.2008L51.3568 26.5912ZM52.5672 25.6791C53.0541 25.4578 53.5815 25.346 54.1531 25.346V24.746C53.5006 24.746 52.888 24.8742 52.3189 25.1329L52.5672 25.6791ZM54.1531 25.346C54.8504 25.346 55.3111 25.4642 55.5847 25.653L55.9254 25.159C55.5031 24.8678 54.8957 24.746 54.1531 24.746V25.346ZM55.5945 25.6594C55.7453 25.7549 55.8232 25.8442 55.8602 25.9182C55.894 25.9856 55.9041 26.0605 55.8787 26.1587L56.4595 26.3093C56.518 26.0835 56.5012 25.8584 56.3969 25.6498C56.2959 25.4478 56.1249 25.2851 55.9156 25.1526L55.5945 25.6594ZM55.8772 26.1645C55.8315 26.3567 55.7553 26.4321 55.6822 26.4661L55.9359 27.0099C56.2229 26.8759 56.3867 26.6153 56.4609 26.3035L55.8772 26.1645ZM55.6976 26.4595C55.5843 26.5048 55.4358 26.5194 55.2379 26.4798L55.1202 27.0682C55.4024 27.1246 55.6739 27.1152 55.9205 27.0165L55.6976 26.4595ZM55.2388 26.48C54.4401 26.3178 53.7071 26.3021 53.0458 26.4447L53.1723 27.0313C53.735 26.9099 54.382 26.9182 55.1193 27.068L55.2388 26.48ZM53.0458 26.4447C52.3904 26.5861 51.8482 26.8546 51.4389 27.2639L51.8632 27.6881C52.1739 27.3774 52.6037 27.1539 53.1723 27.0313L53.0458 26.4447ZM51.4354 27.2675C51.0275 27.6894 50.8291 28.2229 50.8291 28.844H51.4291C51.4291 28.3611 51.5786 27.9826 51.8668 27.6845L51.4354 27.2675ZM50.8291 28.844V34.1H51.4291V28.844H50.8291ZM50.8291 34.1C50.8291 34.3538 50.7658 34.489 50.6919 34.5629C50.618 34.6368 50.4828 34.7 50.2291 34.7V35.3C50.5753 35.3 50.8901 35.2132 51.1162 34.9871C51.3423 34.761 51.4291 34.4462 51.4291 34.1H50.8291Z" fill="#FEFEFE"/>
</g>
<defs>
<filter id="filter0_d" x="0.852051" y="0.64209" width="67.268" height="42.838" filterUnits="userSpaceOnUse" color-interpolation-filters="sRGB">
<feFlood flood-opacity="0" result="BackgroundImageFix"/>
<feColorMatrix in="SourceAlpha" type="matrix" values="0 0 0 0 0 0 0 0 0 0 0 0 0 0 0 0 0 0 127 0"/>
<feOffset dy="4"/>
<feGaussianBlur stdDeviation="2"/>
<feColorMatrix type="matrix" values="0 0 0 0 0 0 0 0 0 0 0 0 0 0 0 0 0 0 0.25 0"/>
<feBlend mode="normal" in2="BackgroundImageFix" result="effect1_dropShadow"/>
<feBlend mode="normal" in="SourceGraphic" in2="effect1_dropShadow" result="shape"/>
</filter>
</defs>
</svg>
