<svg width="50" height="50" viewBox="0 0 50 50" fill="none" xmlns="http://www.w3.org/2000/svg">
<circle cx="25" cy="25" r="24" stroke="url(#paint0_linear)" stroke-width="2"/>
<path d="M7.74795 34C7.46462 34 7.23128 33.9083 7.04795 33.725C6.86462 33.5417 6.77295 33.3083 6.77295 33.025V15.45C6.77295 15.1667 6.86462 14.9333 7.04795 14.75C7.23128 14.5667 7.46462 14.475 7.74795 14.475H12.4229C13.6396 14.475 14.7229 14.7333 15.6729 15.25C16.6229 15.75 17.3646 16.4583 17.8979 17.375C18.4479 18.275 18.7229 19.3167 18.7229 20.5C18.7229 21.8 18.3729 22.9333 17.6729 23.9C16.9729 24.85 16.0396 25.525 14.8729 25.925L18.9729 32.5C19.2229 32.9 19.2646 33.25 19.098 33.55C18.948 33.85 18.648 34 18.198 34C17.9813 34 17.8063 33.9583 17.6729 33.875C17.5563 33.7917 17.4479 33.6667 17.3479 33.5L12.8479 26.325C12.7146 26.3417 12.5729 26.35 12.4229 26.35H8.72295V33.025C8.72295 33.3083 8.63128 33.5417 8.44795 33.725C8.26462 33.9083 8.03128 34 7.74795 34ZM8.72295 24.475H12.4229C13.2729 24.475 14.0229 24.3083 14.6729 23.975C15.3396 23.625 15.8646 23.15 16.248 22.55C16.6313 21.95 16.823 21.2667 16.823 20.5C16.823 19.6833 16.6313 18.9667 16.248 18.35C15.8646 17.7167 15.3396 17.225 14.6729 16.875C14.0229 16.525 13.2729 16.35 12.4229 16.35H8.72295V24.475Z" fill="url(#paint1_linear)"/>
<path d="M37.6314 34.25C36.2814 34.25 35.0148 33.9917 33.8314 33.475C32.6648 32.9583 31.6314 32.2417 30.7314 31.325C29.8481 30.3917 29.1564 29.325 28.6564 28.125C28.1564 26.9083 27.9064 25.6083 27.9064 24.225C27.9064 22.8583 28.1481 21.575 28.6314 20.375C29.1314 19.1583 29.8231 18.0917 30.7064 17.175C31.6064 16.2583 32.6398 15.5417 33.8064 15.025C34.9898 14.4917 36.2648 14.225 37.6314 14.225C38.8314 14.225 39.9231 14.4 40.9064 14.75C41.8898 15.1 42.8398 15.6583 43.7564 16.425C43.9731 16.5917 44.0648 16.8083 44.0314 17.075C43.9981 17.325 43.8731 17.5 43.6564 17.6C43.6064 17.8 43.4481 17.9333 43.1814 18C42.9314 18.05 42.6814 17.9667 42.4314 17.75C41.7814 17.1833 41.0731 16.7667 40.3064 16.5C39.5398 16.2167 38.6481 16.075 37.6314 16.075C36.5481 16.075 35.5314 16.2917 34.5814 16.725C33.6481 17.1583 32.8231 17.75 32.1064 18.5C31.3898 19.25 30.8231 20.1167 30.4064 21.1C30.0064 22.0833 29.8064 23.125 29.8064 24.225C29.8064 25.3583 30.0064 26.4167 30.4064 27.4C30.8231 28.3833 31.3898 29.25 32.1064 30C32.8231 30.75 33.6481 31.3417 34.5814 31.775C35.5314 32.1917 36.5481 32.4 37.6314 32.4C39.2648 32.4 40.7648 31.925 42.1314 30.975V25.975H38.2314C37.9481 25.975 37.7148 25.8917 37.5314 25.725C37.3481 25.5583 37.2564 25.35 37.2564 25.1C37.2564 24.85 37.3481 24.65 37.5314 24.5C37.7148 24.3333 37.9481 24.25 38.2314 24.25H43.0564C43.3398 24.25 43.5731 24.3417 43.7564 24.525C43.9398 24.6917 44.0314 24.9167 44.0314 25.2V31.4C44.0314 31.5333 44.0148 31.6583 43.9814 31.775C43.9481 31.875 43.8731 31.9833 43.7564 32.1C42.9064 32.8833 41.9564 33.4417 40.9064 33.775C39.8564 34.0917 38.7648 34.25 37.6314 34.25Z" fill="url(#paint2_linear)"/>
<rect x="23" y="10" width="2" height="30" rx="1" fill="url(#paint3_linear)"/>
<defs>
<linearGradient id="paint0_linear" x1="25" y1="0" x2="25" y2="50" gradientUnits="userSpaceOnUse">
<stop stop-color="#18A0FB"/>
<stop offset="1" stop-color="#BC3A80"/>
</linearGradient>
<linearGradient id="paint1_linear" x1="12" y1="12" x2="12" y2="40" gradientUnits="userSpaceOnUse">
<stop stop-color="#1A9FFA"/>
<stop offset="1" stop-color="#B83D83"/>
</linearGradient>
<linearGradient id="paint2_linear" x1="36" y1="12" x2="36" y2="40" gradientUnits="userSpaceOnUse">
<stop stop-color="#1A9FFA"/>
<stop offset="1" stop-color="#B83D83"/>
</linearGradient>
<linearGradient id="paint3_linear" x1="24" y1="10" x2="24" y2="40" gradientUnits="userSpaceOnUse">
<stop stop-color="#18A0FB"/>
<stop offset="1" stop-color="#A23E7E"/>
</linearGradient>
</defs>
</svg>
