<?xml version="1.0" encoding="UTF-8" standalone="no"?>
<svg
   xmlns:dc="http://purl.org/dc/elements/1.1/"
   xmlns:cc="http://creativecommons.org/ns#"
   xmlns:rdf="http://www.w3.org/1999/02/22-rdf-syntax-ns#"
   xmlns:svg="http://www.w3.org/2000/svg"
   xmlns="http://www.w3.org/2000/svg"
   xmlns:sodipodi="http://sodipodi.sourceforge.net/DTD/sodipodi-0.dtd"
   xmlns:inkscape="http://www.inkscape.org/namespaces/inkscape"
   width="108.84665mm"
   height="108.84665mm"
   viewBox="0 0 108.84665 108.84665"
   version="1.1"
   id="svg8"
   inkscape:version="1.0.2 (e86c870879, 2021-01-15, custom)"
   sodipodi:docname="рисунок.svg">
  <defs
     id="defs2" />
  <sodipodi:namedview
     id="base"
     pagecolor="#ffffff"
     bordercolor="#666666"
     borderopacity="1.0"
     inkscape:pageopacity="0.0"
     inkscape:pageshadow="2"
     inkscape:zoom="0.81188379"
     inkscape:cx="131.29394"
     inkscape:cy="131.80116"
     inkscape:document-units="mm"
     inkscape:current-layer="layer1"
     inkscape:document-rotation="0"
     showgrid="false"
     inkscape:snap-nodes="false"
     fit-margin-top="0"
     fit-margin-left="0"
     fit-margin-right="0"
     fit-margin-bottom="0"
     inkscape:window-width="1920"
     inkscape:window-height="1001"
     inkscape:window-x="-9"
     inkscape:window-y="-9"
     inkscape:window-maximized="1" />
  <metadata
     id="metadata5">
    <rdf:RDF>
      <cc:Work
         rdf:about="">
        <dc:format>image/svg+xml</dc:format>
        <dc:type
           rdf:resource="http://purl.org/dc/dcmitype/StillImage" />
        <dc:title></dc:title>
      </cc:Work>
    </rdf:RDF>
  </metadata>
  <g
     inkscape:label="Слой 1"
     inkscape:groupmode="layer"
     id="layer1"
     transform="translate(-104.61009,-150.88623)">
    <g
       id="Layer_1"
       transform="matrix(0.26458333,0,0,0.26458333,116.35795,157.40152)">
      <path
         d="m 279.712,367.01 h -41.466 l -0.084,-0.917 h 6.881 c 1.14,0 2.064,-0.924 2.064,-2.065 v -7.422 c 0,-1.142 -0.924,-2.067 -2.064,-2.067 h -7.952 l -0.027,-0.28 c 1.301,-0.607 2.531,-1.307 3.654,-2.114 0,0 6.096,2.652 10.049,-0.34 8.949,3.057 17.584,-5.009 16.198,-13.591 C 265,326.072 240.962,255.126 237.404,253.188 v -10e-4 c -5.883,-3.192 -27.418,-8.17 -34.117,-9.673 v -2.13 l -6.686,1.685 h -0.619 l -0.506,-5.342 c 40.6,-2.771 64.924,-29.432 74.483,-62.505 11.886,-2.558 17.709,-9.246 17.709,-20.843 0,-9.497 -3.926,-14.624 -8.842,-17.337 2.717,-9.591 4.207,-20.369 4.035,-32.485 -1.5,-106 -94.463,-99 -94.463,-99 0,0 -26.053,-1.958 -50.799,11.924 -5.436,2.458 -29.737,17.698 -50.662,20.076 0,0 5.873,10.512 18.308,14.152 -6.652,13.394 -10.994,30.631 -11.308,52.848 -0.172,12.122 1.32,22.905 4.039,32.501 -4.902,2.717 -8.813,7.842 -8.813,17.321 0,11.596 5.821,18.284 17.703,20.842 9.504,32.888 33.608,59.443 73.8,62.465 l -0.51,5.383 h -0.606 l -6.687,-1.685 v 2.281 c -4.199,0.947 -12.635,2.907 -20.17,4.99 -0.994,-0.967 -2.32,-1.603 -3.592,-1.603 H 6.904 c -2.067,0 -3.193,1.675 -2.513,3.742 l 33.397,101.782 c 0.679,2.068 2.904,3.742 4.97,3.742 h 0.653 c -0.013,0.095 -0.029,0.189 -0.029,0.288 v 7.422 c 0,1.141 0.924,2.065 2.064,2.065 h 136.021 l 0.433,0.917 H 12.712 v 16.835 h 176.856 c 0.047,0.12 0.094,0.238 0.143,0.363 h -0.075 c -0.328,0.016 -0.894,0.078 -1.621,0.176 l -45.996,-0.176 c -4.336,0.2 -45.348,7.866 -62.426,14.24 -1.927,0.719 -2.947,2.187 -3.572,3.098 -0.778,1.133 -1.071,4.983 -1.003,10.75 l 6.167,116.568 4.064,6.455 -2.133,9.747 c 0,0 2.709,0.736 5.971,0.805 0.034,0.257 0.052,0.395 0.052,0.395 l 1.952,0.026 c -3.522,0.914 -6.79,2.326 -9.095,4.491 -6.64,6.237 -2.547,8.236 -2.547,8.236 h 31.849 v -12.457 l 2.843,0.038 2.607,-114.119 6.968,0.243 5.086,96.14 4.064,6.455 -2.132,9.747 c 0,0 2.709,0.736 5.97,0.805 0.034,0.257 0.053,0.395 0.053,0.395 l 1.951,0.026 c -3.521,0.914 -6.79,2.326 -9.095,4.491 -6.64,6.237 -2.547,8.236 -2.547,8.236 h 31.848 v -12.457 l 2.844,0.038 2.591,-113.421 17.172,0.162 c 0,0 3.916,-0.159 6.678,-0.387 l 40.939,0.387 c 0,0 8.702,-0.353 9.311,-0.761 3.088,-1.791 3.834,-8.405 3.513,-16.182 0.553,-0.019 0.858,-0.031 0.858,-0.031 l -3.014,-32.522 h 39.906 c 1.657,0 3,-1.343 3,-3 V 370.01 c 0,-1.657 -1.343,-3 -3,-3"
         fill="#797979"
         id="path833" />
      <path
         d="m 279.712,367.01 h -41.466 l -0.084,-0.917 h 6.881 c 1.14,0 2.064,-0.924 2.064,-2.065 v -7.422 c 0,-1.142 -0.924,-2.067 -2.064,-2.067 h -7.952 l -0.027,-0.28 c 1.301,-0.607 2.531,-1.307 3.654,-2.114 0,0 6.096,2.652 10.049,-0.34 8.949,3.057 17.584,-5.009 16.198,-13.591 C 265,326.072 240.962,255.126 237.404,253.188 v -10e-4 c -5.883,-3.192 -27.418,-8.17 -34.117,-9.673 v -2.13 l -6.686,1.685 h -0.619 l -0.506,-5.342 c 40.6,-2.771 64.924,-29.432 74.483,-62.505 11.886,-2.558 17.709,-9.246 17.709,-20.843 0,-9.497 -3.926,-14.624 -8.842,-17.337 2.717,-9.591 4.207,-20.369 4.035,-32.485 -1.5,-106 -94.463,-99 -94.463,-99 0,0 -26.053,-1.958 -50.799,11.924 -5.436,2.458 -29.737,17.698 -50.662,20.076 0,0 5.873,10.512 18.308,14.152 -6.652,13.394 -10.994,30.631 -11.308,52.848 -0.172,12.122 1.32,22.905 4.039,32.501 -4.902,2.717 -8.813,7.842 -8.813,17.321 0,11.596 5.821,18.284 17.703,20.842 9.504,32.888 33.608,59.443 73.8,62.465 l -0.51,5.383 h -0.606 l -6.687,-1.685 v 2.281 c -4.199,0.947 -12.635,2.907 -20.17,4.99 -0.994,-0.967 -2.32,-1.603 -3.592,-1.603 H 6.904 c -2.067,0 -3.193,1.675 -2.513,3.742 l 33.397,101.782 c 0.679,2.068 2.904,3.742 4.97,3.742 h 0.653 c -0.013,0.095 -0.029,0.189 -0.029,0.288 v 7.422 c 0,1.141 0.924,2.065 2.064,2.065 h 136.021 l 0.433,0.917 H 12.712 v 16.835 h 176.856 c 0.047,0.12 0.094,0.238 0.143,0.363 h -0.075 c -0.328,0.016 -0.894,0.078 -1.621,0.176 l -45.996,-0.176 c -4.336,0.2 -45.348,7.866 -62.426,14.24 -1.927,0.719 -2.947,2.187 -3.572,3.098 -0.778,1.133 -1.071,4.983 -1.003,10.75 l 6.167,116.568 4.064,6.455 -2.133,9.747 c 0,0 2.709,0.736 5.971,0.805 0.034,0.257 0.052,0.395 0.052,0.395 l 1.952,0.026 c -3.522,0.914 -6.79,2.326 -9.095,4.491 -6.64,6.237 -2.547,8.236 -2.547,8.236 h 31.849 v -12.457 l 2.843,0.038 2.607,-114.119 6.968,0.243 5.086,96.14 4.064,6.455 -2.132,9.747 c 0,0 2.709,0.736 5.97,0.805 0.034,0.257 0.053,0.395 0.053,0.395 l 1.951,0.026 c -3.521,0.914 -6.79,2.326 -9.095,4.491 -6.64,6.237 -2.547,8.236 -2.547,8.236 h 31.848 v -12.457 l 2.844,0.038 2.591,-113.421 17.172,0.162 c 0,0 3.916,-0.159 6.678,-0.387 l 40.939,0.387 c 0,0 8.702,-0.353 9.311,-0.761 3.088,-1.791 3.834,-8.405 3.513,-16.182 0.553,-0.019 0.858,-0.031 0.858,-0.031 l -3.014,-32.522 h 39.906 c 1.657,0 3,-1.343 3,-3 V 370.01 c 0,-1.657 -1.343,-3 -3,-3 z"
         fill-opacity="0"
         stroke="#797979"
         stroke-width="8"
         stroke-linecap="round"
         stroke-linejoin="round"
         id="path835" />
      <path
         d="m 79.449,559.019 h 31.849 v -14.083 c 0,0 -20.957,-1.99 -29.302,5.847 -6.64,6.237 -2.547,8.236 -2.547,8.236"
         fill="#8c8d8d"
         id="path837" />
      <path
         d="m 79.449,559.019 h 31.849 v -14.083 c 0,0 -20.957,-1.99 -29.302,5.847 -6.64,6.237 -2.547,8.236 -2.547,8.236 z"
         fill-opacity="0"
         stroke="#797979"
         stroke-width="4"
         stroke-linecap="round"
         stroke-linejoin="round"
         id="path839" />
      <path
         d="m 127.066,559.019 h 31.848 v -14.083 c 0,0 -20.956,-1.99 -29.301,5.847 -6.64,6.237 -2.547,8.236 -2.547,8.236"
         fill="#8c8d8d"
         id="path841" />
      <path
         d="m 127.066,559.019 h 31.848 v -14.083 c 0,0 -20.956,-1.99 -29.301,5.847 -6.64,6.237 -2.547,8.236 -2.547,8.236 z"
         fill-opacity="0"
         stroke="#797979"
         stroke-width="4"
         stroke-linecap="round"
         stroke-linejoin="round"
         id="path843" />
      <path
         d="m 189.689,384.391 -47.67,-0.183 c -4.336,0.2 -45.348,7.866 -62.426,14.24 -1.927,0.719 -2.947,2.187 -3.572,3.098 -0.778,1.133 -1.071,4.983 -1.003,10.75 l 6.167,116.568 4.064,6.455 -2.133,9.747 c 0,0 2.709,0.736 5.971,0.805 0.034,0.257 0.052,0.395 0.052,0.395 l 25.002,0.334 2.607,-114.119 9.732,0.339 55.041,0.521 c 0,0 8.699,-0.353 9.311,-0.761 8.681,-5.035 -1.143,-48.189 -1.143,-48.189"
         fill="#95969d"
         id="path845" />
      <path
         d="m 189.689,384.391 -47.67,-0.183 c -4.336,0.2 -45.348,7.866 -62.426,14.24 -1.927,0.719 -2.947,2.187 -3.572,3.098 -0.778,1.133 -1.071,4.983 -1.003,10.75 l 6.167,116.568 4.064,6.455 -2.133,9.747 c 0,0 2.709,0.736 5.971,0.805 0.034,0.257 0.052,0.395 0.052,0.395 l 25.002,0.334 2.607,-114.119 9.732,0.339 55.041,0.521 c 0,0 8.699,-0.353 9.311,-0.761 8.681,-5.035 -1.143,-48.189 -1.143,-48.189 z"
         fill-opacity="0"
         stroke="#797979"
         stroke-width="4"
         stroke-linecap="round"
         stroke-linejoin="round"
         id="path847" />
      <path
         d="m 237.306,384.391 -47.67,-0.183 c -4.336,0.2 -45.347,7.866 -62.426,14.24 -1.927,0.719 -2.947,2.187 -3.572,3.098 -0.778,1.133 -1.07,4.983 -1.003,10.75 l 6.167,116.568 4.064,6.455 -2.132,9.747 c 0,0 2.709,0.736 5.97,0.805 0.034,0.257 0.053,0.395 0.053,0.395 l 25.001,0.334 2.607,-114.119 9.732,0.339 55.041,0.521 c 0,0 8.702,-0.353 9.311,-0.761 8.681,-5.035 -1.143,-48.189 -1.143,-48.189"
         fill="#95969d"
         id="path849" />
      <path
         d="m 237.306,384.391 -47.67,-0.183 c -4.336,0.2 -45.347,7.866 -62.426,14.24 -1.927,0.719 -2.947,2.187 -3.572,3.098 -0.778,1.133 -1.07,4.983 -1.003,10.75 l 6.167,116.568 4.064,6.455 -2.132,9.747 c 0,0 2.709,0.736 5.97,0.805 0.034,0.257 0.053,0.395 0.053,0.395 l 25.001,0.334 2.607,-114.119 9.732,0.339 55.041,0.521 c 0,0 8.702,-0.353 9.311,-0.761 8.681,-5.035 -1.143,-48.189 -1.143,-48.189 z"
         fill-opacity="0"
         stroke="#797979"
         stroke-width="4"
         stroke-linecap="round"
         stroke-linejoin="round"
         id="path851" />
      <path
         d="m 282.861,104.557 c -1.5,-106 -94.463,-99 -94.463,-99 0,0 -26.053,-1.958 -50.799,11.924 -5.436,2.458 -29.737,17.698 -50.662,20.076 0,0 5.873,10.512 18.308,14.152 -6.652,13.394 -10.994,30.631 -11.308,52.848 -1.205,85.129 79.42,104.423 93.426,107.132 l -0.002,0.368 c 0,0 0.363,-0.054 1.037,-0.175 0.674,0.121 1.039,0.175 1.039,0.175 l -0.002,-0.368 c 14.004,-2.709 94.631,-22.003 93.426,-107.132"
         fill="#98867a"
         id="path853" />
      <path
         d="m 282.861,104.557 c -1.5,-106 -94.463,-99 -94.463,-99 0,0 -26.053,-1.958 -50.799,11.924 -5.436,2.458 -29.737,17.698 -50.662,20.076 0,0 5.873,10.512 18.308,14.152 -6.652,13.394 -10.994,30.631 -11.308,52.848 -1.205,85.129 79.42,104.423 93.426,107.132 l -0.002,0.368 c 0,0 0.363,-0.054 1.037,-0.175 0.674,0.121 1.039,0.175 1.039,0.175 l -0.002,-0.368 c 14.004,-2.709 94.631,-22.003 93.426,-107.132 z"
         fill-opacity="0"
         stroke="#797979"
         stroke-width="4"
         stroke-linecap="round"
         stroke-linejoin="round"
         id="path855" />
      <path
         d="m 237.404,253.187 c -6.994,-3.794 -36.123,-10.118 -36.123,-10.118 h -25.74 c 0,0 -29.131,6.324 -36.123,10.118 l 10.101,41.608 H 227.3 Z"
         fill="#95969d"
         id="path857" />
      <path
         d="m 237.404,253.187 c -6.994,-3.794 -36.123,-10.118 -36.123,-10.118 h -25.74 c 0,0 -29.131,6.324 -36.123,10.118 l 10.101,41.608 H 227.3 Z"
         fill-opacity="0"
         stroke="#797979"
         stroke-width="4"
         stroke-linecap="round"
         stroke-linejoin="round"
         id="path859" />
      <path
         d="m 200.939,243.069 h -4.957 l -1.424,-15.032 -6.488,-4.219 -6.49,4.219 -1.424,15.032 h -4.957 c -3.852,7.502 7.762,14.996 7.762,14.996 h 10.216 c 0,0 11.614,-7.494 7.762,-14.996"
         fill="#feeed8"
         id="path861" />
      <path
         d="m 200.939,243.069 h -4.957 l -1.424,-15.032 -6.488,-4.219 -6.49,4.219 -1.424,15.032 h -4.957 c -3.852,7.502 7.762,14.996 7.762,14.996 h 10.216 c 0,0 11.614,-7.494 7.762,-14.996 z"
         fill-opacity="0"
         stroke="#797979"
         stroke-width="4"
         stroke-linecap="round"
         stroke-linejoin="round"
         id="path863" />
      <g
         id="g869">
        <path
           d="m 201.281,243.069 c 0,0 29.129,6.324 36.123,10.118 3.555,1.928 27.596,72.884 29.561,85.027 1.962,12.143 -16.139,23.285 -26.805,3.285 -5.324,-9.982 -18.875,-46.954 -18.875,-46.954"
           fill="#95969d"
           id="path865" />
        <path
           d="m 201.281,243.069 c 0,0 29.129,6.324 36.123,10.118 3.555,1.928 27.596,72.884 29.561,85.027 1.962,12.143 -16.139,23.285 -26.805,3.285 -5.324,-9.982 -18.875,-46.954 -18.875,-46.954"
           fill-opacity="0"
           stroke="#797979"
           stroke-width="4"
           stroke-linecap="round"
           stroke-linejoin="round"
           id="path867" />
      </g>
      <g
         id="g875">
        <path
           d="m 175.541,243.069 c 0,0 -29.131,6.324 -36.124,10.118 -3.556,1.928 -27.597,72.884 -29.56,85.027 -1.964,12.143 16.137,23.285 26.804,3.285 5.325,-9.982 18.876,-46.954 18.876,-46.954"
           fill="#95969d"
           id="path871" />
        <path
           d="m 175.541,243.069 c 0,0 -29.131,6.324 -36.124,10.118 -3.556,1.928 -27.597,72.884 -29.56,85.027 -1.964,12.143 16.137,23.285 26.804,3.285 5.325,-9.982 18.876,-46.954 18.876,-46.954"
           fill-opacity="0"
           stroke="#797979"
           stroke-width="4"
           stroke-linecap="round"
           stroke-linejoin="round"
           id="path873" />
      </g>
      <g
         id="g881">
        <path
           d="m 231.091,289.795 11.729,126.572 c 0,0 -34.99,1.364 -39.221,-2.656 -4.228,-4.02 -15.355,-33.283 -15.355,-33.283 l -42.848,-90.633"
           fill="#95969d"
           id="path877" />
        <path
           d="m 231.091,289.795 11.729,126.572 c 0,0 -34.99,1.364 -39.221,-2.656 -4.228,-4.02 -15.355,-33.283 -15.355,-33.283 l -42.848,-90.633"
           fill-opacity="0"
           stroke="#797979"
           stroke-width="4"
           stroke-linecap="round"
           stroke-linejoin="round"
           id="path879" />
      </g>
      <path
         d="m 192.826,274.069 c 0,2.624 -2.127,4.75 -4.75,4.75 -2.625,0 -4.75,-2.126 -4.75,-4.75 0,-2.623 2.125,-4.75 4.75,-4.75 2.623,0 4.75,2.127 4.75,4.75"
         fill="#eaecae"
         id="path883" />
      <path
         d="m 192.826,274.069 c 0,2.624 -2.127,4.75 -4.75,4.75 -2.625,0 -4.75,-2.126 -4.75,-4.75 0,-2.623 2.125,-4.75 4.75,-4.75 2.623,0 4.75,2.127 4.75,4.75 z"
         fill-opacity="0"
         stroke="#797979"
         stroke-width="4"
         stroke-linecap="round"
         stroke-linejoin="round"
         id="path885" />
      <path
         d="m 192.826,305.413 c 0,2.624 -2.127,4.75 -4.75,4.75 -2.625,0 -4.75,-2.126 -4.75,-4.75 0,-2.624 2.125,-4.75 4.75,-4.75 2.623,0 4.75,2.126 4.75,4.75"
         fill="#eaecae"
         id="path887" />
      <path
         d="m 192.826,305.413 c 0,2.624 -2.127,4.75 -4.75,4.75 -2.625,0 -4.75,-2.126 -4.75,-4.75 0,-2.624 2.125,-4.75 4.75,-4.75 2.623,0 4.75,2.126 4.75,4.75 z"
         fill-opacity="0"
         stroke="#797979"
         stroke-width="4"
         stroke-linecap="round"
         stroke-linejoin="round"
         id="path889" />
      <path
         d="m 192.826,336.757 c 0,2.624 -2.127,4.75 -4.75,4.75 -2.625,0 -4.75,-2.126 -4.75,-4.75 0,-2.624 2.125,-4.75 4.75,-4.75 2.623,0 4.75,2.126 4.75,4.75"
         fill="#eaecae"
         id="path891" />
      <path
         d="m 192.826,336.757 c 0,2.624 -2.127,4.75 -4.75,4.75 -2.625,0 -4.75,-2.126 -4.75,-4.75 0,-2.624 2.125,-4.75 4.75,-4.75 2.623,0 4.75,2.126 4.75,4.75 z"
         fill-opacity="0"
         stroke="#797979"
         stroke-width="4"
         stroke-linecap="round"
         stroke-linejoin="round"
         id="path893" />
      <path
         d="m 192.826,368.101 c 0,2.624 -2.127,4.75 -4.75,4.75 -2.625,0 -4.75,-2.126 -4.75,-4.75 0,-2.624 2.125,-4.75 4.75,-4.75 2.623,0 4.75,2.126 4.75,4.75"
         fill="#eaecae"
         id="path895" />
      <path
         d="m 192.826,368.101 c 0,2.624 -2.127,4.75 -4.75,4.75 -2.625,0 -4.75,-2.126 -4.75,-4.75 0,-2.624 2.125,-4.75 4.75,-4.75 2.623,0 4.75,2.126 4.75,4.75 z"
         fill-opacity="0"
         stroke="#797979"
         stroke-width="4"
         stroke-linecap="round"
         stroke-linejoin="round"
         id="path897" />
      <path
         d="m 172.863,241.384 v 6.891 c 0,0 1.125,11.878 15.25,11.878 l -0.125,-14.957 z"
         fill="#95969d"
         id="path899" />
      <path
         d="m 172.863,241.384 v 6.891 c 0,0 1.125,11.878 15.25,11.878 l -0.125,-14.957 z"
         fill-opacity="0"
         stroke="#797979"
         stroke-width="4"
         stroke-linecap="round"
         stroke-linejoin="round"
         id="path901" />
      <path
         d="m 203.287,241.384 v 6.891 c 0,0 -1.125,11.878 -15.25,11.878 l 0.125,-14.957 z"
         fill="#95969d"
         id="path903" />
      <path
         d="m 203.287,241.384 v 6.891 c 0,0 -1.125,11.878 -15.25,11.878 l 0.125,-14.957 z"
         fill-opacity="0"
         stroke="#797979"
         stroke-width="4"
         stroke-linecap="round"
         stroke-linejoin="round"
         id="path905" />
      <g
         id="g911">
        <path
           d="m 117.306,134.743 c 0,0 -28.143,-5.807 -28.143,19.636 0,14.967 9.688,21.763 29.606,22.048"
           fill="#feeed8"
           id="path907" />
        <path
           d="m 117.306,134.743 c 0,0 -28.143,-5.807 -28.143,19.636 0,14.967 9.688,21.763 29.606,22.048"
           fill-opacity="0"
           stroke="#797979"
           stroke-width="4"
           stroke-linecap="round"
           stroke-linejoin="round"
           id="path909" />
      </g>
      <g
         id="g917">
        <path
           d="m 99.888,155.756 c 0,0 3.687,-1.703 7.203,-1.682"
           fill="#feeed8"
           id="path913" />
        <path
           d="m 99.888,155.756 c 0,0 3.687,-1.703 7.203,-1.682"
           fill-opacity="0"
           stroke="#797979"
           stroke-width="4"
           stroke-linecap="round"
           stroke-linejoin="round"
           id="path915" />
      </g>
      <g
         id="g923">
        <path
           d="m 259.525,134.743 c 0,0 28.143,-5.807 28.143,19.636 0,14.967 -9.69,21.763 -29.608,22.048"
           fill="#feeed8"
           id="path919" />
        <path
           d="m 259.525,134.743 c 0,0 28.143,-5.807 28.143,19.636 0,14.967 -9.69,21.763 -29.608,22.048"
           fill-opacity="0"
           stroke="#797979"
           stroke-width="4"
           stroke-linecap="round"
           stroke-linejoin="round"
           id="path921" />
      </g>
      <g
         id="g929">
        <path
           d="m 276.943,155.756 c 0,0 -3.689,-1.703 -7.205,-1.682"
           fill="#feeed8"
           id="path925" />
        <path
           d="m 276.943,155.756 c 0,0 -3.689,-1.703 -7.205,-1.682"
           fill-opacity="0"
           stroke="#797979"
           stroke-width="4"
           stroke-linecap="round"
           stroke-linejoin="round"
           id="path927" />
      </g>
      <path
         d="m 274.498,134.549 c 2.531,51.248 -24.621,103.431 -86.082,103.431 -61.173,0 -88.358,-51.691 -86.118,-102.703 2.184,-49.695 1.701,-98.748 86.118,-98.748 84.414,0 83.638,48.575 86.082,98.02"
         fill="#feeed8"
         id="path931" />
      <path
         d="m 274.498,134.549 c 2.531,51.248 -24.621,103.431 -86.082,103.431 -61.173,0 -88.358,-51.691 -86.118,-102.703 2.184,-49.695 1.701,-98.748 86.118,-98.748 84.414,0 83.638,48.575 86.082,98.02 z"
         fill-opacity="0"
         stroke="#797979"
         stroke-width="4"
         stroke-linecap="round"
         stroke-linejoin="round"
         id="path933" />
      <path
         d="m 106.171,62.323 c 0,0 22.504,27.396 57.129,29.766 l -0.769,-20.398 c 0,0 15.199,12.078 37.777,18.502 l 2.211,-18.163 c 0,0 22.627,14.614 44.391,18.017 L 238.156,70.9 c 0,0 22.234,14.555 35.477,20.052 0,0 -4.936,-6.585 -5.817,-26.983 -0.986,-22.806 -34.799,-40.736 -79.463,-43.262 -44.66,-2.525 -83.979,19.547 -82.182,41.616"
         fill="#98867a"
         id="path935" />
      <g
         id="g941">
        <path
           d="m 111.118,67.271 c 9.403,8.292 29.641,23.276 52.182,24.818 l -0.769,-20.397 c 0,0 15.199,12.078 37.777,18.502 l 2.211,-18.163 c 0,0 22.627,14.614 44.391,18.016 l -8.754,-19.146 c 0,0 22.234,14.555 35.477,20.052 0,0 -2.778,-3.703 -4.538,-14.161"
           fill="#98867a"
           id="path937" />
        <path
           d="m 111.118,67.271 c 9.403,8.292 29.641,23.276 52.182,24.818 l -0.769,-20.397 c 0,0 15.199,12.078 37.777,18.502 l 2.211,-18.163 c 0,0 22.627,14.614 44.391,18.016 l -8.754,-19.146 c 0,0 22.234,14.555 35.477,20.052 0,0 -2.778,-3.703 -4.538,-14.161"
           fill-opacity="0"
           stroke="#797979"
           stroke-width="4"
           stroke-linecap="round"
           stroke-linejoin="round"
           id="path939" />
      </g>
      <path
         d="m 230.324,132.871 c 0,7.627 -2.539,13.81 -5.67,13.81 -3.129,0 -5.668,-6.183 -5.668,-13.81 0,-7.627 2.539,-13.809 5.668,-13.809 3.131,0 5.67,6.182 5.67,13.809"
         fill="#797979"
         id="path943" />
      <path
         d="m 146.498,132.871 c 0,7.627 2.537,13.81 5.668,13.81 3.13,0 5.668,-6.183 5.668,-13.81 0,-7.627 -2.538,-13.809 -5.668,-13.809 -3.131,0 -5.668,6.182 -5.668,13.809"
         fill="#797979"
         id="path945" />
      <path
         d="m 190.453,372.669 c 0,1.128 -0.914,2.041 -2.043,2.041 -1.127,0 -2.041,-0.913 -2.041,-2.041 0,-1.128 0.914,-2.042 2.041,-2.042 1.129,0 2.043,0.914 2.043,2.042"
         fill="#75a4bc"
         id="path947" />
      <path
         d="m 234.552,101.795 c 0,0 -3.435,-2.15 -9.283,-2.15 -4.984,0 -8.453,2.65 -8.453,2.65 m -75.133,-0.5 c 0,0 3.434,-2.15 9.284,-2.15 4.984,0 8.453,2.65 8.453,2.65 m 31.033,270.374 c 0,1.128 -0.914,2.041 -2.043,2.041 -1.127,0 -2.041,-0.913 -2.041,-2.041 0,-1.128 0.914,-2.042 2.041,-2.042 1.129,0 2.043,0.914 2.043,2.042 z"
         fill-opacity="0"
         stroke="#797979"
         stroke-width="4"
         stroke-linecap="round"
         stroke-linejoin="round"
         id="path949" />
      <path
         d="m 253.355,347.937 c 0,0 2.563,-17.662 -21.246,-19.311 -23.809,-1.648 -32.811,14.843 -28.311,23.128 3.274,6.028 25.45,8.636 36.92,0.391 0,0 9.873,4.299 12.637,-4.208"
         fill="#feeed8"
         id="path951" />
      <path
         d="m 253.355,347.937 c 0,0 2.563,-17.662 -21.246,-19.311 -23.809,-1.648 -32.811,14.843 -28.311,23.128 3.274,6.028 25.45,8.636 36.92,0.391 0,0 9.873,4.299 12.637,-4.208 z"
         fill-opacity="0"
         stroke="#797979"
         stroke-width="4"
         stroke-linecap="round"
         stroke-linejoin="round"
         id="path953" />
      <g
         id="g959">
        <path
           d="m 226.173,344.139 c 0,0 -2.24,3.365 -1.076,7.081 1.916,6.111 0,0 0,0"
           fill="#8c94a2"
           id="path955" />
        <path
           d="m 226.173,344.139 c 0,0 -2.24,3.365 -1.076,7.081 1.916,6.111 0,0 0,0"
           fill-opacity="0"
           stroke="#797979"
           stroke-width="4"
           stroke-linecap="round"
           stroke-linejoin="round"
           id="path957" />
      </g>
      <g
         id="g965">
        <path
           d="m 216.818,341.108 c 0,0 -4.166,2.725 -3.537,9.555 0.976,10.634 0,0 0,0"
           fill="#8c94a2"
           id="path961" />
        <path
           d="m 216.818,341.108 c 0,0 -4.166,2.725 -3.537,9.555 0.976,10.634 0,0 0,0"
           fill-opacity="0"
           stroke="#797979"
           stroke-width="4"
           stroke-linecap="round"
           stroke-linejoin="round"
           id="path963" />
      </g>
      <path
         d="m 43.382,364.028 c 0,1.141 0.924,2.065 2.064,2.065 h 199.597 c 1.14,0 2.064,-0.924 2.064,-2.065 v -7.422 c 0,-1.142 -0.924,-2.067 -2.064,-2.067 H 45.446 c -1.14,0 -2.064,0.925 -2.064,2.067 z"
         fill="#e4e6e8"
         id="path967" />
      <path
         d="m 43.382,364.028 c 0,1.141 0.924,2.065 2.064,2.065 h 199.597 c 1.14,0 2.064,-0.924 2.064,-2.065 v -7.422 c 0,-1.142 -0.924,-2.067 -2.064,-2.067 H 45.446 c -1.14,0 -2.064,0.925 -2.064,2.067 z"
         fill-opacity="0"
         stroke="#797979"
         stroke-width="4"
         stroke-linecap="round"
         stroke-linejoin="round"
         id="path969" />
      <path
         d="m 37.788,352.576 c 0.679,2.068 2.903,3.742 4.97,3.742 h 142.197 c 2.066,0 3.191,-1.674 2.513,-3.742 L 154.072,250.794 c -0.678,-2.067 -2.902,-3.742 -4.971,-3.742 H 6.904 c -2.067,0 -3.193,1.675 -2.513,3.742 z"
         fill="#e4e6e8"
         id="path971" />
      <path
         d="m 176.617,346.726 -28.78,-87.711 c -0.679,-2.068 -2.904,-3.742 -4.97,-3.742 H 15.046 m 22.742,97.303 c 0.679,2.068 2.904,3.742 4.97,3.742 h 142.197 c 2.066,0 3.191,-1.674 2.513,-3.742 L 154.072,250.794 c -0.678,-2.067 -2.902,-3.742 -4.971,-3.742 H 6.904 c -2.067,0 -3.193,1.675 -2.513,3.742 z"
         fill-opacity="0"
         stroke="#797979"
         stroke-width="4"
         stroke-linecap="round"
         stroke-linejoin="round"
         id="path973" />
      <path
         d="m 12.712,383.845 h 267 c 1.657,0 3,-1.343 3,-3 V 370.01 c 0,-1.657 -1.343,-3 -3,-3 h -267 z"
         fill="#fbedbd"
         id="path975" />
      <path
         d="m 187.826,203.581 c 6.787,0 12.14,-1.871 16.019,-3.981 m -15.435,3.981 c -6.789,0 -12.141,-1.871 -16.02,-3.981 m 13.801,-22.138 c 0,0 -1.334,6 3.918,5.667 M 12.712,383.845 h 267 c 1.657,0 3,-1.343 3,-3 V 370.01 c 0,-1.657 -1.343,-3 -3,-3 h -267 z"
         fill-opacity="0"
         stroke="#797979"
         stroke-width="4"
         stroke-linecap="round"
         stroke-linejoin="round"
         id="path977" />
    </g>
  </g>
</svg>
